<svg width="43" height="38" viewBox="0 0 43 38" fill="none" xmlns="http://www.w3.org/2000/svg">
<g clip-path="url(#clip0_94_1183)">
<circle cx="33.6932" cy="16.6925" r="2.342" fill="#19857E"/>
<circle cx="33.6932" cy="24.6553" r="2.342" fill="#19857E"/>
<circle cx="33.8648" cy="32.308" r="2.342" fill="#19857E"/>
<circle cx="26.1988" cy="32.6181" r="2.342" fill="#19857E"/>
<rect x="0.75" y="0.75" width="25.5" height="24.5" rx="1.25" stroke="#19857E" stroke-width="1.5"/>
<path fill-rule="evenodd" clip-rule="evenodd" d="M16 25.5385V36C16 37.1046 16.8954 38 18 38H41C42.1046 38 43 37.1046 43 36V13C43 11.8954 42.1046 11 41 11H27V12.5H41C41.2761 12.5 41.5 12.7239 41.5 13V36C41.5 36.2761 41.2761 36.5 41 36.5H18C17.7239 36.5 17.5 36.2761 17.5 36V25.5385H16Z" fill="#19857E"/>
<path fill-rule="evenodd" clip-rule="evenodd" d="M24.2811 26C24.7048 26.6031 25.4058 26.9973 26.1988 26.9973C27.4923 26.9973 28.5408 25.9487 28.5408 24.6553C28.5408 23.6433 27.8989 22.7811 27 22.4539V24C27 25.1046 26.1046 26 25 26H24.2811Z" fill="#19857E"/>
<path fill-rule="evenodd" clip-rule="evenodd" d="M27 18.8938C27.8989 18.5666 28.5408 17.7045 28.5408 16.6925C28.5408 15.6804 27.8989 14.8183 27 14.4911V18.8938Z" fill="#19857E"/>
<path d="M12.936 6.12C12.8933 6.26933 12.8507 6.41867 12.808 6.568C12.776 6.70667 12.744 6.84 12.712 6.968C12.616 7.46933 12.5253 8.04533 12.44 8.696C12.3547 9.336 12.2853 10.008 12.232 10.712C12.1787 11.4053 12.152 12.088 12.152 12.76C12.152 13.592 12.1947 14.36 12.28 15.064C12.3653 15.7573 12.4827 16.4027 12.632 17C12.792 17.5867 12.9627 18.1467 13.144 18.68L11.304 19.24C11.144 18.76 10.9893 18.1893 10.84 17.528C10.7013 16.8667 10.584 16.1573 10.488 15.4C10.392 14.632 10.344 13.8587 10.344 13.08C10.344 12.5467 10.36 12.0133 10.392 11.48C10.4347 10.936 10.4773 10.4027 10.52 9.88C10.5627 9.34667 10.6107 8.84 10.664 8.36C10.728 7.86933 10.7813 7.42667 10.824 7.032C10.8347 6.88267 10.8453 6.72267 10.856 6.552C10.8667 6.37067 10.8667 6.21067 10.856 6.072L12.936 6.12ZM10.088 7.896C11.1013 7.896 12.0507 7.87467 12.936 7.832C13.832 7.78933 14.6907 7.71467 15.512 7.608C16.344 7.50133 17.1707 7.34667 17.992 7.144L18.008 9C17.4533 9.096 16.84 9.18667 16.168 9.272C15.5067 9.34667 14.8133 9.41067 14.088 9.464C13.3733 9.51733 12.6693 9.56 11.976 9.592C11.2827 9.61333 10.632 9.624 10.024 9.624C9.74667 9.624 9.432 9.61867 9.08 9.608C8.73867 9.59733 8.39733 9.58667 8.056 9.576C7.72533 9.55467 7.43733 9.53867 7.192 9.528L7.144 7.672C7.32533 7.69333 7.58667 7.72533 7.928 7.768C8.26933 7.8 8.632 7.832 9.016 7.864C9.41067 7.88533 9.768 7.896 10.088 7.896ZM16.984 10.232C16.952 10.328 16.904 10.4613 16.84 10.632C16.776 10.8027 16.712 10.9787 16.648 11.16C16.5947 11.3413 16.552 11.4853 16.52 11.592C16.2107 12.552 15.832 13.432 15.384 14.232C14.9467 15.0213 14.472 15.7147 13.96 16.312C13.448 16.8987 12.9413 17.3787 12.44 17.752C11.9173 18.1467 11.32 18.4933 10.648 18.792C9.976 19.08 9.29867 19.224 8.616 19.224C8.232 19.224 7.87467 19.144 7.544 18.984C7.21333 18.824 6.94667 18.5733 6.744 18.232C6.552 17.88 6.456 17.4373 6.456 16.904C6.456 16.328 6.57333 15.7627 6.808 15.208C7.04267 14.6533 7.368 14.1253 7.784 13.624C8.2 13.1227 8.68533 12.68 9.24 12.296C9.79467 11.9013 10.392 11.592 11.032 11.368C11.5547 11.176 12.1253 11.0213 12.744 10.904C13.3733 10.7867 13.992 10.728 14.6 10.728C15.592 10.728 16.4773 10.9093 17.256 11.272C18.0453 11.6347 18.664 12.1307 19.112 12.76C19.56 13.3893 19.784 14.1253 19.784 14.968C19.784 15.5333 19.6933 16.088 19.512 16.632C19.3307 17.1653 19.032 17.6613 18.616 18.12C18.2107 18.5787 17.672 18.9733 17 19.304C16.328 19.6347 15.5013 19.8747 14.52 20.024L13.464 18.344C14.488 18.2267 15.32 17.9973 15.96 17.656C16.6 17.304 17.064 16.8827 17.352 16.392C17.6507 15.9013 17.8 15.3947 17.8 14.872C17.8 14.4027 17.672 13.9813 17.416 13.608C17.1707 13.2347 16.7973 12.936 16.296 12.712C15.8053 12.4773 15.1973 12.36 14.472 12.36C13.7467 12.36 13.096 12.44 12.52 12.6C11.9547 12.76 11.48 12.9307 11.096 13.112C10.5627 13.368 10.088 13.6933 9.672 14.088C9.256 14.472 8.93067 14.8773 8.696 15.304C8.46133 15.7307 8.344 16.1253 8.344 16.488C8.344 16.744 8.40267 16.9413 8.52 17.08C8.63733 17.208 8.824 17.272 9.08 17.272C9.464 17.272 9.90667 17.1493 10.408 16.904C10.9093 16.648 11.4053 16.2907 11.896 15.832C12.472 15.2987 13.016 14.6587 13.528 13.912C14.04 13.1653 14.4613 12.2373 14.792 11.128C14.824 11.0213 14.856 10.8827 14.888 10.712C14.92 10.5413 14.9467 10.3707 14.968 10.2C15 10.0187 15.0213 9.87467 15.032 9.768L16.984 10.232Z" fill="#19857E"/>
</g>
<defs>
<clipPath id="clip0_94_1183">
<rect width="43" height="38" fill="white"/>
</clipPath>
</defs>
</svg>
