<svg width="43" height="38" viewBox="0 0 43 38" fill="none" xmlns="http://www.w3.org/2000/svg">
<circle cx="33.6932" cy="16.6924" r="2.342" fill="white"/>
<circle cx="33.6932" cy="24.6553" r="2.342" fill="white"/>
<circle cx="33.8648" cy="32.308" r="2.342" fill="white"/>
<circle cx="26.1988" cy="32.618" r="2.342" fill="white"/>
<rect x="0.5" y="0.5" width="26" height="25" rx="1.5" stroke="white"/>
<path fill-rule="evenodd" clip-rule="evenodd" d="M16 25.5385V36C16 37.1046 16.8954 38 18 38H41C42.1046 38 43 37.1046 43 36V13C43 11.8954 42.1046 11 41 11H27V12H41C41.5523 12 42 12.4477 42 13V36C42 36.5523 41.5523 37 41 37H18C17.4477 37 17 36.5523 17 36V25.5385H16Z" fill="white"/>
<path fill-rule="evenodd" clip-rule="evenodd" d="M24.2811 26C24.7048 26.6031 25.4058 26.9973 26.1988 26.9973C27.4922 26.9973 28.5408 25.9487 28.5408 24.6553C28.5408 23.6432 27.8989 22.7811 27 22.4539V24C27 25.1046 26.1046 26 25 26H24.2811Z" fill="white"/>
<path fill-rule="evenodd" clip-rule="evenodd" d="M27 18.8938C27.8989 18.5666 28.5408 17.7045 28.5408 16.6924C28.5408 15.6804 27.8989 14.8183 27 14.4911V18.8938Z" fill="white"/>
<path d="M12.936 6.136C12.84 6.44 12.776 6.728 12.712 6.984C12.408 8.472 12.136 10.776 12.136 12.76C12.136 15.288 12.6 17.08 13.128 18.696L11.288 19.24C10.808 17.8 10.344 15.432 10.344 13.08C10.344 10.984 10.632 8.632 10.808 7.048C10.84 6.728 10.872 6.36 10.856 6.072L12.936 6.136ZM10.072 7.896C13.112 7.896 15.528 7.752 17.976 7.16L17.992 9C15.8 9.4 12.44 9.64 10.024 9.64C9.176 9.64 7.928 9.56 7.176 9.528L7.128 7.688C7.704 7.768 9.096 7.896 10.072 7.896ZM16.984 10.248C16.856 10.536 16.616 11.272 16.504 11.608C15.592 14.488 13.944 16.648 12.424 17.768C11.384 18.536 9.992 19.24 8.6 19.24C7.432 19.24 6.456 18.536 6.456 16.904C6.456 14.648 8.472 12.296 11.016 11.368C12.072 10.984 13.384 10.744 14.584 10.744C17.576 10.744 19.784 12.472 19.784 14.968C19.784 17.24 18.44 19.432 14.52 20.04L13.448 18.344C16.536 18.008 17.8 16.456 17.8 14.872C17.8 13.512 16.632 12.36 14.472 12.36C13.016 12.36 11.864 12.776 11.08 13.128C9.48 13.88 8.344 15.416 8.344 16.488C8.344 17.016 8.552 17.288 9.08 17.288C9.832 17.288 10.904 16.76 11.88 15.848C13.048 14.776 14.136 13.352 14.776 11.144C14.888 10.808 15 10.12 15.016 9.768L16.984 10.248Z" fill="white"/>
</svg>
