<svg width="407" height="141" viewBox="0 0 407 141" fill="none" xmlns="http://www.w3.org/2000/svg">
<g clip-path="url(#clip0_114_1183)">
<g filter="url(#filter0_d_114_1183)">
<path d="M204.556 115.232C205.276 115.208 205.96 115.184 206.608 115.16C207.256 115.112 207.76 115.076 208.12 115.052C208.864 114.98 209.776 114.896 210.856 114.8C211.936 114.704 213.148 114.596 214.492 114.476C215.86 114.356 217.312 114.236 218.848 114.116C220.384 113.972 221.98 113.828 223.636 113.684C224.884 113.588 226.132 113.504 227.38 113.432C228.628 113.336 229.804 113.264 230.908 113.216C232.036 113.144 233.008 113.096 233.824 113.072L233.86 117.68C233.212 117.68 232.468 117.692 231.628 117.716C230.788 117.74 229.948 117.788 229.108 117.86C228.292 117.908 227.56 118.004 226.912 118.148C225.832 118.436 224.824 118.928 223.888 119.624C222.976 120.296 222.172 121.1 221.476 122.036C220.78 122.972 220.24 123.98 219.856 125.06C219.496 126.116 219.316 127.184 219.316 128.264C219.316 129.44 219.52 130.484 219.928 131.396C220.336 132.284 220.9 133.052 221.62 133.7C222.364 134.324 223.228 134.852 224.212 135.284C225.196 135.692 226.252 136.004 227.38 136.22C228.532 136.436 229.72 136.58 230.944 136.652L229.252 141.584C227.74 141.488 226.264 141.248 224.824 140.864C223.408 140.48 222.076 139.952 220.828 139.28C219.604 138.608 218.524 137.792 217.588 136.832C216.652 135.848 215.92 134.732 215.392 133.484C214.864 132.212 214.6 130.796 214.6 129.236C214.6 127.484 214.876 125.888 215.428 124.448C215.98 123.008 216.664 121.748 217.48 120.668C218.296 119.564 219.112 118.712 219.928 118.112C219.256 118.184 218.44 118.28 217.48 118.4C216.544 118.496 215.524 118.616 214.42 118.76C213.34 118.88 212.236 119.012 211.108 119.156C209.98 119.3 208.888 119.468 207.832 119.66C206.8 119.828 205.864 119.996 205.024 120.164L204.556 115.232Z" fill="#2593FF"/>
</g>
<g filter="url(#filter1_d_114_1183)">
<path d="M340.772 113.252C340.604 113.492 340.412 113.768 340.196 114.08C340.004 114.368 339.812 114.656 339.62 114.944C339.188 115.592 338.708 116.348 338.18 117.212C337.676 118.052 337.148 118.952 336.596 119.912C336.044 120.848 335.504 121.784 334.976 122.72C334.472 123.656 333.992 124.52 333.536 125.312C334.208 124.928 334.892 124.652 335.588 124.484C336.284 124.316 336.98 124.232 337.676 124.232C339.02 124.232 340.076 124.64 340.844 125.456C341.636 126.248 342.068 127.4 342.14 128.912C342.164 129.44 342.176 130.076 342.176 130.82C342.176 131.564 342.176 132.308 342.176 133.052C342.2 133.796 342.236 134.42 342.284 134.924C342.356 135.62 342.608 136.124 343.04 136.436C343.496 136.724 344.024 136.868 344.624 136.868C345.392 136.868 346.088 136.64 346.712 136.184C347.36 135.728 347.936 135.104 348.44 134.312C348.944 133.496 349.376 132.584 349.736 131.576C350.12 130.544 350.444 129.476 350.708 128.372L354.596 131.54C353.972 133.58 353.18 135.38 352.22 136.94C351.26 138.476 350.084 139.664 348.692 140.504C347.324 141.368 345.716 141.8 343.868 141.8C342.548 141.8 341.444 141.56 340.556 141.08C339.668 140.624 339.008 140.024 338.576 139.28C338.144 138.512 337.904 137.684 337.856 136.796C337.808 136.148 337.772 135.428 337.748 134.636C337.748 133.844 337.736 133.076 337.712 132.332C337.712 131.564 337.688 130.94 337.64 130.46C337.592 129.836 337.388 129.344 337.028 128.984C336.668 128.624 336.164 128.444 335.516 128.444C334.724 128.444 333.968 128.696 333.248 129.2C332.528 129.704 331.868 130.364 331.268 131.18C330.692 131.996 330.188 132.896 329.756 133.88C329.516 134.408 329.264 135.032 329 135.752C328.736 136.472 328.484 137.216 328.244 137.984C328.004 138.752 327.776 139.472 327.56 140.144C327.344 140.84 327.164 141.428 327.02 141.908L321.944 140.18C322.4 138.98 322.952 137.612 323.6 136.076C324.272 134.516 325.004 132.884 325.796 131.18C326.588 129.476 327.392 127.784 328.208 126.104C329.024 124.424 329.804 122.84 330.548 121.352C331.292 119.84 331.952 118.532 332.528 117.428C333.128 116.3 333.584 115.448 333.896 114.872C334.136 114.392 334.412 113.852 334.724 113.252C335.036 112.652 335.348 111.968 335.66 111.2L340.772 113.252Z" fill="#2593FF"/>
</g>
<g filter="url(#filter2_d_114_1183)">
<circle cx="201.222" cy="11.2222" r="11.2222" fill="#2594FF"/>
</g>
<g filter="url(#filter3_d_114_1183)">
<circle cx="201.222" cy="49.3779" r="11.2222" fill="#2594FF"/>
</g>
<g filter="url(#filter4_d_114_1183)">
<circle cx="237.133" cy="11.2222" r="11.2222" fill="#2594FF"/>
</g>
<g filter="url(#filter5_d_114_1183)">
<circle cx="237.133" cy="49.3779" r="11.2222" fill="#2594FF"/>
</g>
<g filter="url(#filter6_i_114_1183)">
<circle cx="237.955" cy="86.0477" r="11.2222" fill="#1977D2"/>
</g>
<g filter="url(#filter7_d_114_1183)">
<circle cx="201.222" cy="87.5334" r="11.2222" fill="#2594FF"/>
</g>
<g filter="url(#filter8_i_114_1183)">
<circle cx="319.008" cy="11.2222" r="11.2222" fill="#1977D2"/>
</g>
<g filter="url(#filter9_i_114_1183)">
<circle cx="319.008" cy="49.3779" r="11.2222" fill="#1977D2"/>
</g>
<g filter="url(#filter10_i_114_1183)">
<circle cx="354.919" cy="11.2222" r="11.2222" fill="#1977D2"/>
</g>
<g filter="url(#filter11_i_114_1183)">
<circle cx="354.919" cy="49.3779" r="11.2222" fill="#1977D2"/>
</g>
<g filter="url(#filter12_d_114_1183)">
<circle cx="355.741" cy="86.0477" r="11.2222" fill="#2594FF"/>
</g>
<g filter="url(#filter13_d_114_1183)">
<circle cx="319.008" cy="87.5334" r="11.2222" fill="#2594FF"/>
</g>
<g filter="url(#filter14_d_114_1183)">
<path d="M407 107.205H384.327L395.877 129.645L389.888 132.234L378.338 108.932L361.227 125.33V61.0312L407 107.205Z" fill="#2594FF"/>
<path d="M386.786 108.705H407H410.599L408.065 106.149L362.292 59.9752L359.727 57.3875V61.0312V125.33V128.845L362.264 126.413L377.901 111.428L388.544 132.901L389.177 134.176L390.484 133.611L396.473 131.022L397.945 130.385L397.211 128.959L386.786 108.705Z" stroke="#1977D2" stroke-width="3"/>
</g>
</g>
<defs>
<filter id="filter0_d_114_1183" x="202.556" y="111.072" width="37.304" height="36.512" filterUnits="userSpaceOnUse" color-interpolation-filters="sRGB">
<feFlood flood-opacity="0" result="BackgroundImageFix"/>
<feColorMatrix in="SourceAlpha" type="matrix" values="0 0 0 0 0 0 0 0 0 0 0 0 0 0 0 0 0 0 127 0" result="hardAlpha"/>
<feOffset dx="2" dy="2"/>
<feGaussianBlur stdDeviation="2"/>
<feComposite in2="hardAlpha" operator="out"/>
<feColorMatrix type="matrix" values="0 0 0 0 0 0 0 0 0 0 0 0 0 0 0 0 0 0 0.25 0"/>
<feBlend mode="normal" in2="BackgroundImageFix" result="effect1_dropShadow_114_1183"/>
<feBlend mode="normal" in="SourceGraphic" in2="effect1_dropShadow_114_1183" result="shape"/>
</filter>
<filter id="filter1_d_114_1183" x="319.944" y="109.2" width="40.652" height="38.708" filterUnits="userSpaceOnUse" color-interpolation-filters="sRGB">
<feFlood flood-opacity="0" result="BackgroundImageFix"/>
<feColorMatrix in="SourceAlpha" type="matrix" values="0 0 0 0 0 0 0 0 0 0 0 0 0 0 0 0 0 0 127 0" result="hardAlpha"/>
<feOffset dx="2" dy="2"/>
<feGaussianBlur stdDeviation="2"/>
<feComposite in2="hardAlpha" operator="out"/>
<feColorMatrix type="matrix" values="0 0 0 0 0 0 0 0 0 0 0 0 0 0 0 0 0 0 0.25 0"/>
<feBlend mode="normal" in2="BackgroundImageFix" result="effect1_dropShadow_114_1183"/>
<feBlend mode="normal" in="SourceGraphic" in2="effect1_dropShadow_114_1183" result="shape"/>
</filter>
<filter id="filter2_d_114_1183" x="188" y="-2" width="30.4445" height="30.4445" filterUnits="userSpaceOnUse" color-interpolation-filters="sRGB">
<feFlood flood-opacity="0" result="BackgroundImageFix"/>
<feColorMatrix in="SourceAlpha" type="matrix" values="0 0 0 0 0 0 0 0 0 0 0 0 0 0 0 0 0 0 127 0" result="hardAlpha"/>
<feOffset dx="2" dy="2"/>
<feGaussianBlur stdDeviation="2"/>
<feComposite in2="hardAlpha" operator="out"/>
<feColorMatrix type="matrix" values="0 0 0 0 0 0 0 0 0 0 0 0 0 0 0 0 0 0 0.25 0"/>
<feBlend mode="normal" in2="BackgroundImageFix" result="effect1_dropShadow_114_1183"/>
<feBlend mode="normal" in="SourceGraphic" in2="effect1_dropShadow_114_1183" result="shape"/>
</filter>
<filter id="filter3_d_114_1183" x="188" y="36.1556" width="30.4445" height="30.4445" filterUnits="userSpaceOnUse" color-interpolation-filters="sRGB">
<feFlood flood-opacity="0" result="BackgroundImageFix"/>
<feColorMatrix in="SourceAlpha" type="matrix" values="0 0 0 0 0 0 0 0 0 0 0 0 0 0 0 0 0 0 127 0" result="hardAlpha"/>
<feOffset dx="2" dy="2"/>
<feGaussianBlur stdDeviation="2"/>
<feComposite in2="hardAlpha" operator="out"/>
<feColorMatrix type="matrix" values="0 0 0 0 0 0 0 0 0 0 0 0 0 0 0 0 0 0 0.25 0"/>
<feBlend mode="normal" in2="BackgroundImageFix" result="effect1_dropShadow_114_1183"/>
<feBlend mode="normal" in="SourceGraphic" in2="effect1_dropShadow_114_1183" result="shape"/>
</filter>
<filter id="filter4_d_114_1183" x="223.911" y="-2" width="30.4445" height="30.4445" filterUnits="userSpaceOnUse" color-interpolation-filters="sRGB">
<feFlood flood-opacity="0" result="BackgroundImageFix"/>
<feColorMatrix in="SourceAlpha" type="matrix" values="0 0 0 0 0 0 0 0 0 0 0 0 0 0 0 0 0 0 127 0" result="hardAlpha"/>
<feOffset dx="2" dy="2"/>
<feGaussianBlur stdDeviation="2"/>
<feComposite in2="hardAlpha" operator="out"/>
<feColorMatrix type="matrix" values="0 0 0 0 0 0 0 0 0 0 0 0 0 0 0 0 0 0 0.25 0"/>
<feBlend mode="normal" in2="BackgroundImageFix" result="effect1_dropShadow_114_1183"/>
<feBlend mode="normal" in="SourceGraphic" in2="effect1_dropShadow_114_1183" result="shape"/>
</filter>
<filter id="filter5_d_114_1183" x="223.911" y="36.1556" width="30.4445" height="30.4445" filterUnits="userSpaceOnUse" color-interpolation-filters="sRGB">
<feFlood flood-opacity="0" result="BackgroundImageFix"/>
<feColorMatrix in="SourceAlpha" type="matrix" values="0 0 0 0 0 0 0 0 0 0 0 0 0 0 0 0 0 0 127 0" result="hardAlpha"/>
<feOffset dx="2" dy="2"/>
<feGaussianBlur stdDeviation="2"/>
<feComposite in2="hardAlpha" operator="out"/>
<feColorMatrix type="matrix" values="0 0 0 0 0 0 0 0 0 0 0 0 0 0 0 0 0 0 0.25 0"/>
<feBlend mode="normal" in2="BackgroundImageFix" result="effect1_dropShadow_114_1183"/>
<feBlend mode="normal" in="SourceGraphic" in2="effect1_dropShadow_114_1183" result="shape"/>
</filter>
<filter id="filter6_i_114_1183" x="226.733" y="74.8254" width="24.4445" height="24.4445" filterUnits="userSpaceOnUse" color-interpolation-filters="sRGB">
<feFlood flood-opacity="0" result="BackgroundImageFix"/>
<feBlend mode="normal" in="SourceGraphic" in2="BackgroundImageFix" result="shape"/>
<feColorMatrix in="SourceAlpha" type="matrix" values="0 0 0 0 0 0 0 0 0 0 0 0 0 0 0 0 0 0 127 0" result="hardAlpha"/>
<feOffset dx="2" dy="2"/>
<feGaussianBlur stdDeviation="2"/>
<feComposite in2="hardAlpha" operator="arithmetic" k2="-1" k3="1"/>
<feColorMatrix type="matrix" values="0 0 0 0 0 0 0 0 0 0 0 0 0 0 0 0 0 0 0.25 0"/>
<feBlend mode="normal" in2="shape" result="effect1_innerShadow_114_1183"/>
</filter>
<filter id="filter7_d_114_1183" x="188" y="74.3112" width="30.4445" height="30.4445" filterUnits="userSpaceOnUse" color-interpolation-filters="sRGB">
<feFlood flood-opacity="0" result="BackgroundImageFix"/>
<feColorMatrix in="SourceAlpha" type="matrix" values="0 0 0 0 0 0 0 0 0 0 0 0 0 0 0 0 0 0 127 0" result="hardAlpha"/>
<feOffset dx="2" dy="2"/>
<feGaussianBlur stdDeviation="2"/>
<feComposite in2="hardAlpha" operator="out"/>
<feColorMatrix type="matrix" values="0 0 0 0 0 0 0 0 0 0 0 0 0 0 0 0 0 0 0.25 0"/>
<feBlend mode="normal" in2="BackgroundImageFix" result="effect1_dropShadow_114_1183"/>
<feBlend mode="normal" in="SourceGraphic" in2="effect1_dropShadow_114_1183" result="shape"/>
</filter>
<filter id="filter8_i_114_1183" x="307.786" y="0" width="24.4445" height="24.4445" filterUnits="userSpaceOnUse" color-interpolation-filters="sRGB">
<feFlood flood-opacity="0" result="BackgroundImageFix"/>
<feBlend mode="normal" in="SourceGraphic" in2="BackgroundImageFix" result="shape"/>
<feColorMatrix in="SourceAlpha" type="matrix" values="0 0 0 0 0 0 0 0 0 0 0 0 0 0 0 0 0 0 127 0" result="hardAlpha"/>
<feOffset dx="2" dy="2"/>
<feGaussianBlur stdDeviation="2"/>
<feComposite in2="hardAlpha" operator="arithmetic" k2="-1" k3="1"/>
<feColorMatrix type="matrix" values="0 0 0 0 0 0 0 0 0 0 0 0 0 0 0 0 0 0 0.25 0"/>
<feBlend mode="normal" in2="shape" result="effect1_innerShadow_114_1183"/>
</filter>
<filter id="filter9_i_114_1183" x="307.786" y="38.1556" width="24.4445" height="24.4445" filterUnits="userSpaceOnUse" color-interpolation-filters="sRGB">
<feFlood flood-opacity="0" result="BackgroundImageFix"/>
<feBlend mode="normal" in="SourceGraphic" in2="BackgroundImageFix" result="shape"/>
<feColorMatrix in="SourceAlpha" type="matrix" values="0 0 0 0 0 0 0 0 0 0 0 0 0 0 0 0 0 0 127 0" result="hardAlpha"/>
<feOffset dx="2" dy="2"/>
<feGaussianBlur stdDeviation="2"/>
<feComposite in2="hardAlpha" operator="arithmetic" k2="-1" k3="1"/>
<feColorMatrix type="matrix" values="0 0 0 0 0 0 0 0 0 0 0 0 0 0 0 0 0 0 0.25 0"/>
<feBlend mode="normal" in2="shape" result="effect1_innerShadow_114_1183"/>
</filter>
<filter id="filter10_i_114_1183" x="343.697" y="0" width="24.4445" height="24.4445" filterUnits="userSpaceOnUse" color-interpolation-filters="sRGB">
<feFlood flood-opacity="0" result="BackgroundImageFix"/>
<feBlend mode="normal" in="SourceGraphic" in2="BackgroundImageFix" result="shape"/>
<feColorMatrix in="SourceAlpha" type="matrix" values="0 0 0 0 0 0 0 0 0 0 0 0 0 0 0 0 0 0 127 0" result="hardAlpha"/>
<feOffset dx="2" dy="2"/>
<feGaussianBlur stdDeviation="2"/>
<feComposite in2="hardAlpha" operator="arithmetic" k2="-1" k3="1"/>
<feColorMatrix type="matrix" values="0 0 0 0 0 0 0 0 0 0 0 0 0 0 0 0 0 0 0.25 0"/>
<feBlend mode="normal" in2="shape" result="effect1_innerShadow_114_1183"/>
</filter>
<filter id="filter11_i_114_1183" x="343.697" y="38.1556" width="24.4445" height="24.4445" filterUnits="userSpaceOnUse" color-interpolation-filters="sRGB">
<feFlood flood-opacity="0" result="BackgroundImageFix"/>
<feBlend mode="normal" in="SourceGraphic" in2="BackgroundImageFix" result="shape"/>
<feColorMatrix in="SourceAlpha" type="matrix" values="0 0 0 0 0 0 0 0 0 0 0 0 0 0 0 0 0 0 127 0" result="hardAlpha"/>
<feOffset dx="2" dy="2"/>
<feGaussianBlur stdDeviation="2"/>
<feComposite in2="hardAlpha" operator="arithmetic" k2="-1" k3="1"/>
<feColorMatrix type="matrix" values="0 0 0 0 0 0 0 0 0 0 0 0 0 0 0 0 0 0 0.25 0"/>
<feBlend mode="normal" in2="shape" result="effect1_innerShadow_114_1183"/>
</filter>
<filter id="filter12_d_114_1183" x="342.519" y="72.8254" width="30.4445" height="30.4445" filterUnits="userSpaceOnUse" color-interpolation-filters="sRGB">
<feFlood flood-opacity="0" result="BackgroundImageFix"/>
<feColorMatrix in="SourceAlpha" type="matrix" values="0 0 0 0 0 0 0 0 0 0 0 0 0 0 0 0 0 0 127 0" result="hardAlpha"/>
<feOffset dx="2" dy="2"/>
<feGaussianBlur stdDeviation="2"/>
<feComposite in2="hardAlpha" operator="out"/>
<feColorMatrix type="matrix" values="0 0 0 0 0 0 0 0 0 0 0 0 0 0 0 0 0 0 0.25 0"/>
<feBlend mode="normal" in2="BackgroundImageFix" result="effect1_dropShadow_114_1183"/>
<feBlend mode="normal" in="SourceGraphic" in2="effect1_dropShadow_114_1183" result="shape"/>
</filter>
<filter id="filter13_d_114_1183" x="305.786" y="74.3112" width="30.4445" height="30.4445" filterUnits="userSpaceOnUse" color-interpolation-filters="sRGB">
<feFlood flood-opacity="0" result="BackgroundImageFix"/>
<feColorMatrix in="SourceAlpha" type="matrix" values="0 0 0 0 0 0 0 0 0 0 0 0 0 0 0 0 0 0 127 0" result="hardAlpha"/>
<feOffset dx="2" dy="2"/>
<feGaussianBlur stdDeviation="2"/>
<feComposite in2="hardAlpha" operator="out"/>
<feColorMatrix type="matrix" values="0 0 0 0 0 0 0 0 0 0 0 0 0 0 0 0 0 0 0.25 0"/>
<feBlend mode="normal" in2="BackgroundImageFix" result="effect1_dropShadow_114_1183"/>
<feBlend mode="normal" in="SourceGraphic" in2="effect1_dropShadow_114_1183" result="shape"/>
</filter>
<filter id="filter14_d_114_1183" x="358.227" y="53.7438" width="63.9717" height="90.3743" filterUnits="userSpaceOnUse" color-interpolation-filters="sRGB">
<feFlood flood-opacity="0" result="BackgroundImageFix"/>
<feColorMatrix in="SourceAlpha" type="matrix" values="0 0 0 0 0 0 0 0 0 0 0 0 0 0 0 0 0 0 127 0" result="hardAlpha"/>
<feOffset dx="4" dy="4"/>
<feGaussianBlur stdDeviation="2"/>
<feComposite in2="hardAlpha" operator="out"/>
<feColorMatrix type="matrix" values="0 0 0 0 0 0 0 0 0 0 0 0 0 0 0 0 0 0 0.25 0"/>
<feBlend mode="normal" in2="BackgroundImageFix" result="effect1_dropShadow_114_1183"/>
<feBlend mode="normal" in="SourceGraphic" in2="effect1_dropShadow_114_1183" result="shape"/>
</filter>
<clipPath id="clip0_114_1183">
<rect width="407" height="141" fill="white"/>
</clipPath>
</defs>
</svg>
