<svg width="364" height="254" viewBox="0 0 364 254" fill="none" xmlns="http://www.w3.org/2000/svg">
<g filter="url(#filter0_d_20_105)">
<path d="M97 74L45 74C42 74 40 72 40 69L40 61C40 64 42.5 66 45 66L92 66C94.5 66 97 64 97 61L97 21C97 18 94.5 16 92 16L45 16C42.5 16 40 18 40 21L40 13C40 10 42 8 45 8L97 8C103.5 8 108 12.5 108 19L108 64C108 70.5 103.5 74 97 74Z" fill="#8A8A8A"/>
</g>
<rect x="40" y="66" width="50" height="57" rx="5" transform="rotate(-90 40 66)" fill="#BEBEBE"/>
<path d="M93 49L93 33.5" stroke="#515151" stroke-linecap="round"/>
<path d="M65 57.0312L47.8203 57.0312L47.8203 45.4414L49.8477 45.4414L49.8477 54.7578L55.168 54.7578L55.168 46.6953L57.1953 46.6953L57.1953 54.7578L65 54.7578L65 57.0312Z" fill="#515151"/>
<g filter="url(#filter1_d_20_105)">
<path d="M97 158L45 158C42 158 40 156 40 153L40 145C40 148 42.5 150 45 150L92 150C94.5 150 97 148 97 145L97 105C97 102 94.5 100 92 100L45 100C42.5 100 40 102 40 105L40 97C40 94 42 92 45 92L97 92C103.5 92 108 96.5 108 103L108 148C108 154.5 103.5 158 97 158Z" fill="#8A8A8A"/>
</g>
<rect x="40" y="150" width="50" height="57" rx="5" transform="rotate(-90 40 150)" fill="#BEBEBE"/>
<path d="M65 141.148L47.8203 141.148L47.8203 135.23C47.8203 133.895 47.9024 132.875 48.0664 132.172C48.293 131.187 48.7031 130.348 49.2969 129.652C50.0625 128.746 51.043 128.07 52.2383 127.625C53.4258 127.172 54.7852 126.945 56.3164 126.945C57.6211 126.945 58.7774 127.098 59.7852 127.402C60.793 127.707 61.6289 128.098 62.293 128.574C62.9492 129.051 63.4688 129.574 63.8516 130.145C64.2266 130.707 64.5117 131.391 64.707 132.195C64.9024 132.992 65 133.91 65 134.949L65 141.148ZM62.9727 138.875L62.9727 135.207C62.9727 134.074 62.8672 133.187 62.6563 132.547C62.4453 131.898 62.1484 131.383 61.7656 131C61.2266 130.461 60.5039 130.043 59.5977 129.746C58.6836 129.441 57.5781 129.289 56.2813 129.289C54.4844 129.289 53.1055 129.586 52.1445 130.18C51.1758 130.766 50.5274 131.48 50.1992 132.324C49.9649 132.934 49.8477 133.914 49.8477 135.266L49.8477 138.875L62.9727 138.875Z" fill="#515151"/>
<g filter="url(#filter2_d_20_105)">
<path d="M97 242L45 242C42 242 40 240 40 237L40 229C40 232 42.5 234 45 234L92 234C94.5 234 97 232 97 229L97 189C97 186 94.5 184 92 184L45 184C42.5 184 40 186 40 189L40 181C40 178 42 176 45 176L97 176C103.5 176 108 180.5 108 187L108 232C108 238.5 103.5 242 97 242Z" fill="#8A8A8A"/>
</g>
<rect x="40" y="234" width="50" height="57" rx="5" transform="rotate(-90 40 234)" fill="#BEBEBE"/>
<path d="M59.4805 225.922L59.293 223.777C60.1524 223.676 60.8594 223.441 61.4141 223.074C61.9609 222.699 62.4063 222.121 62.75 221.34C63.0859 220.559 63.2539 219.68 63.2539 218.703C63.2539 217.836 63.125 217.07 62.8672 216.406C62.6094 215.742 62.2578 215.25 61.8125 214.93C61.3594 214.602 60.8672 214.437 60.3359 214.437C59.7969 214.437 59.3281 214.594 58.9297 214.906C58.5234 215.219 58.1836 215.734 57.9102 216.453C57.7305 216.914 57.4531 217.934 57.0781 219.512C56.6953 221.09 56.3359 222.195 56 222.828C55.5703 223.648 55.0391 224.262 54.4063 224.668C53.7656 225.066 53.0508 225.266 52.2617 225.266C51.3945 225.266 50.5859 225.02 49.8359 224.527C49.0781 224.035 48.5039 223.316 48.1133 222.371C47.7227 221.426 47.5274 220.375 47.5274 219.219C47.5274 217.945 47.7344 216.824 48.1484 215.855C48.5547 214.879 49.1563 214.129 49.9531 213.605C50.75 213.082 51.6524 212.801 52.6602 212.762L52.8242 214.941C51.7383 215.059 50.918 215.457 50.3633 216.137C49.8086 216.809 49.5313 217.805 49.5313 219.125C49.5313 220.5 49.7852 221.504 50.293 222.137C50.793 222.762 51.3984 223.074 52.1094 223.074C52.7266 223.074 53.2344 222.852 53.6328 222.406C54.0313 221.969 54.4414 220.828 54.8633 218.984C55.2774 217.133 55.6406 215.863 55.9531 215.176C56.4141 214.176 57 213.437 57.7109 212.961C58.4141 212.484 59.2266 212.246 60.1484 212.246C61.0625 212.246 61.9258 212.508 62.7383 213.031C63.543 213.555 64.1719 214.309 64.625 215.293C65.0703 216.27 65.293 217.371 65.293 218.598C65.293 220.152 65.0664 221.457 64.6133 222.512C64.1602 223.559 63.4805 224.383 62.5742 224.984C61.6602 225.578 60.6289 225.891 59.4805 225.922Z" fill="#515151"/>
<path d="M274 176L326 176C329 176 331 178 331 181L331 189C331 186 328.5 184 326 184L279 184C276.5 184 274 186 274 189L274 229C274 232 276.5 234 279 234L326 234C328.5 234 331 232 331 229L331 237C331 240 329 242 326 242L274 242C267.5 242 263 237.5 263 231L263 186C263 179.5 267.5 176 274 176Z" fill="#8A8A8A" fill-opacity="0.5"/>
<rect x="331" y="184" width="50" height="57" rx="5" transform="rotate(90 331 184)" fill="#BEBEBE" fill-opacity="0.5"/>
<path d="M306 192.758L323.18 192.758L323.18 195.031L308.027 195.031L308.027 203.492L306 203.492L306 192.758Z" fill="#515151" fill-opacity="0.5"/>
<g filter="url(#filter3_d_20_105)">
<path d="M274 92L326 92C329 92 331 94 331 97L331 105C331 102 328.5 100 326 100L279 100C276.5 100 274 102 274 105L274 145C274 148 276.5 150 279 150L326 150C328.5 150 331 148 331 145L331 153C331 156 329 158 326 158L274 158C267.5 158 263 153.5 263 147L263 102C263 95.5 267.5 92 274 92Z" fill="#8A8A8A"/>
</g>
<rect x="331" y="100" width="50" height="57" rx="5" transform="rotate(90 331 100)" fill="#BEBEBE"/>
<path d="M306 108.758L323.18 108.758L323.18 111.031L314.66 111.031L323.18 119.562L323.18 122.645L316.219 115.437L306 122.961L306 119.961L314.695 113.844L311.953 111.031L306 111.031L306 108.758Z" fill="#515151"/>
<g filter="url(#filter4_d_20_105)">
<path d="M274 8L326 8C329 8 331 10 331 13L331 21C331 18 328.5 16 326 16L279 16C276.5 16 274 18 274 21L274 61C274 64 276.5 66 279 66L326 66C328.5 66 331 64 331 61L331 69C331 72 329 74 326 74L274 74C267.5 74 263 69.5 263 63L263 18C263 11.5 267.5 8 274 8Z" fill="#8A8A8A"/>
</g>
<rect x="331" y="16" width="50" height="57" rx="5" transform="rotate(90 331 16)" fill="#BEBEBE"/>
<path d="M278 33L278 48.5" stroke="#515151" stroke-linecap="round"/>
<path d="M310.875 23.6914L311.156 25.7422C309.844 25.7969 308.945 26.043 308.461 26.4805C307.977 26.918 307.734 27.5234 307.734 28.2969C307.734 28.8672 307.863 29.3594 308.121 29.7734C308.387 30.1875 308.742 30.4727 309.187 30.6289C309.641 30.7852 310.359 30.8633 311.344 30.8633L323.18 30.8633L323.18 33.1367L311.473 33.1367C310.035 33.1367 308.922 32.9609 308.133 32.6094C307.344 32.2656 306.742 31.7148 306.328 30.957C305.914 30.207 305.707 29.3242 305.707 28.3086C305.707 26.8008 306.141 25.6445 307.008 24.8398C307.875 24.043 309.164 23.6602 310.875 23.6914Z" fill="#515151"/>
<g filter="url(#filter5_d_20_105)">
<circle cx="149.5" cy="45.5" r="27.5" fill="#515151"/>
</g>
<g filter="url(#filter6_d_20_105)">
<circle cx="221.5" cy="45.5" r="27.5" fill="#515151"/>
</g>
<g filter="url(#filter7_d_20_105)">
<circle cx="149.5" cy="129.5" r="27.5" fill="#515151"/>
</g>
<g filter="url(#filter8_d_20_105)">
<circle cx="221.5" cy="213.5" r="27.5" fill="#BEBEBE"/>
</g>
<g filter="url(#filter9_d_20_105)">
<circle cx="221.5" cy="129.5" r="27.5" fill="#515151"/>
</g>
<g filter="url(#filter10_d_20_105)">
<circle cx="149.5" cy="213.5" r="27.5" fill="#515151"/>
</g>
<defs>
<filter id="filter0_d_20_105" x="36" y="8" width="76" height="74" filterUnits="userSpaceOnUse" color-interpolation-filters="sRGB">
<feFlood flood-opacity="0" result="BackgroundImageFix"/>
<feColorMatrix in="SourceAlpha" type="matrix" values="0 0 0 0 0 0 0 0 0 0 0 0 0 0 0 0 0 0 127 0" result="hardAlpha"/>
<feOffset dy="4"/>
<feGaussianBlur stdDeviation="2"/>
<feComposite in2="hardAlpha" operator="out"/>
<feColorMatrix type="matrix" values="0 0 0 0 0 0 0 0 0 0 0 0 0 0 0 0 0 0 0.25 0"/>
<feBlend mode="normal" in2="BackgroundImageFix" result="effect1_dropShadow_20_105"/>
<feBlend mode="normal" in="SourceGraphic" in2="effect1_dropShadow_20_105" result="shape"/>
</filter>
<filter id="filter1_d_20_105" x="36" y="92" width="76" height="74" filterUnits="userSpaceOnUse" color-interpolation-filters="sRGB">
<feFlood flood-opacity="0" result="BackgroundImageFix"/>
<feColorMatrix in="SourceAlpha" type="matrix" values="0 0 0 0 0 0 0 0 0 0 0 0 0 0 0 0 0 0 127 0" result="hardAlpha"/>
<feOffset dy="4"/>
<feGaussianBlur stdDeviation="2"/>
<feComposite in2="hardAlpha" operator="out"/>
<feColorMatrix type="matrix" values="0 0 0 0 0 0 0 0 0 0 0 0 0 0 0 0 0 0 0.25 0"/>
<feBlend mode="normal" in2="BackgroundImageFix" result="effect1_dropShadow_20_105"/>
<feBlend mode="normal" in="SourceGraphic" in2="effect1_dropShadow_20_105" result="shape"/>
</filter>
<filter id="filter2_d_20_105" x="36" y="176" width="76" height="74" filterUnits="userSpaceOnUse" color-interpolation-filters="sRGB">
<feFlood flood-opacity="0" result="BackgroundImageFix"/>
<feColorMatrix in="SourceAlpha" type="matrix" values="0 0 0 0 0 0 0 0 0 0 0 0 0 0 0 0 0 0 127 0" result="hardAlpha"/>
<feOffset dy="4"/>
<feGaussianBlur stdDeviation="2"/>
<feComposite in2="hardAlpha" operator="out"/>
<feColorMatrix type="matrix" values="0 0 0 0 0 0 0 0 0 0 0 0 0 0 0 0 0 0 0.25 0"/>
<feBlend mode="normal" in2="BackgroundImageFix" result="effect1_dropShadow_20_105"/>
<feBlend mode="normal" in="SourceGraphic" in2="effect1_dropShadow_20_105" result="shape"/>
</filter>
<filter id="filter3_d_20_105" x="259" y="92" width="76" height="74" filterUnits="userSpaceOnUse" color-interpolation-filters="sRGB">
<feFlood flood-opacity="0" result="BackgroundImageFix"/>
<feColorMatrix in="SourceAlpha" type="matrix" values="0 0 0 0 0 0 0 0 0 0 0 0 0 0 0 0 0 0 127 0" result="hardAlpha"/>
<feOffset dy="4"/>
<feGaussianBlur stdDeviation="2"/>
<feComposite in2="hardAlpha" operator="out"/>
<feColorMatrix type="matrix" values="0 0 0 0 0 0 0 0 0 0 0 0 0 0 0 0 0 0 0.25 0"/>
<feBlend mode="normal" in2="BackgroundImageFix" result="effect1_dropShadow_20_105"/>
<feBlend mode="normal" in="SourceGraphic" in2="effect1_dropShadow_20_105" result="shape"/>
</filter>
<filter id="filter4_d_20_105" x="259" y="8" width="76" height="74" filterUnits="userSpaceOnUse" color-interpolation-filters="sRGB">
<feFlood flood-opacity="0" result="BackgroundImageFix"/>
<feColorMatrix in="SourceAlpha" type="matrix" values="0 0 0 0 0 0 0 0 0 0 0 0 0 0 0 0 0 0 127 0" result="hardAlpha"/>
<feOffset dy="4"/>
<feGaussianBlur stdDeviation="2"/>
<feComposite in2="hardAlpha" operator="out"/>
<feColorMatrix type="matrix" values="0 0 0 0 0 0 0 0 0 0 0 0 0 0 0 0 0 0 0.25 0"/>
<feBlend mode="normal" in2="BackgroundImageFix" result="effect1_dropShadow_20_105"/>
<feBlend mode="normal" in="SourceGraphic" in2="effect1_dropShadow_20_105" result="shape"/>
</filter>
<filter id="filter5_d_20_105" x="118" y="18" width="63" height="63" filterUnits="userSpaceOnUse" color-interpolation-filters="sRGB">
<feFlood flood-opacity="0" result="BackgroundImageFix"/>
<feColorMatrix in="SourceAlpha" type="matrix" values="0 0 0 0 0 0 0 0 0 0 0 0 0 0 0 0 0 0 127 0" result="hardAlpha"/>
<feOffset dy="4"/>
<feGaussianBlur stdDeviation="2"/>
<feComposite in2="hardAlpha" operator="out"/>
<feColorMatrix type="matrix" values="0 0 0 0 0 0 0 0 0 0 0 0 0 0 0 0 0 0 0.25 0"/>
<feBlend mode="normal" in2="BackgroundImageFix" result="effect1_dropShadow_20_105"/>
<feBlend mode="normal" in="SourceGraphic" in2="effect1_dropShadow_20_105" result="shape"/>
</filter>
<filter id="filter6_d_20_105" x="190" y="18" width="63" height="63" filterUnits="userSpaceOnUse" color-interpolation-filters="sRGB">
<feFlood flood-opacity="0" result="BackgroundImageFix"/>
<feColorMatrix in="SourceAlpha" type="matrix" values="0 0 0 0 0 0 0 0 0 0 0 0 0 0 0 0 0 0 127 0" result="hardAlpha"/>
<feOffset dy="4"/>
<feGaussianBlur stdDeviation="2"/>
<feComposite in2="hardAlpha" operator="out"/>
<feColorMatrix type="matrix" values="0 0 0 0 0 0 0 0 0 0 0 0 0 0 0 0 0 0 0.25 0"/>
<feBlend mode="normal" in2="BackgroundImageFix" result="effect1_dropShadow_20_105"/>
<feBlend mode="normal" in="SourceGraphic" in2="effect1_dropShadow_20_105" result="shape"/>
</filter>
<filter id="filter7_d_20_105" x="118" y="102" width="63" height="63" filterUnits="userSpaceOnUse" color-interpolation-filters="sRGB">
<feFlood flood-opacity="0" result="BackgroundImageFix"/>
<feColorMatrix in="SourceAlpha" type="matrix" values="0 0 0 0 0 0 0 0 0 0 0 0 0 0 0 0 0 0 127 0" result="hardAlpha"/>
<feOffset dy="4"/>
<feGaussianBlur stdDeviation="2"/>
<feComposite in2="hardAlpha" operator="out"/>
<feColorMatrix type="matrix" values="0 0 0 0 0 0 0 0 0 0 0 0 0 0 0 0 0 0 0.25 0"/>
<feBlend mode="normal" in2="BackgroundImageFix" result="effect1_dropShadow_20_105"/>
<feBlend mode="normal" in="SourceGraphic" in2="effect1_dropShadow_20_105" result="shape"/>
</filter>
<filter id="filter8_d_20_105" x="190" y="186" width="63" height="63" filterUnits="userSpaceOnUse" color-interpolation-filters="sRGB">
<feFlood flood-opacity="0" result="BackgroundImageFix"/>
<feColorMatrix in="SourceAlpha" type="matrix" values="0 0 0 0 0 0 0 0 0 0 0 0 0 0 0 0 0 0 127 0" result="hardAlpha"/>
<feOffset dy="4"/>
<feGaussianBlur stdDeviation="2"/>
<feComposite in2="hardAlpha" operator="out"/>
<feColorMatrix type="matrix" values="0 0 0 0 0 0 0 0 0 0 0 0 0 0 0 0 0 0 0.25 0"/>
<feBlend mode="normal" in2="BackgroundImageFix" result="effect1_dropShadow_20_105"/>
<feBlend mode="normal" in="SourceGraphic" in2="effect1_dropShadow_20_105" result="shape"/>
</filter>
<filter id="filter9_d_20_105" x="190" y="102" width="63" height="63" filterUnits="userSpaceOnUse" color-interpolation-filters="sRGB">
<feFlood flood-opacity="0" result="BackgroundImageFix"/>
<feColorMatrix in="SourceAlpha" type="matrix" values="0 0 0 0 0 0 0 0 0 0 0 0 0 0 0 0 0 0 127 0" result="hardAlpha"/>
<feOffset dy="4"/>
<feGaussianBlur stdDeviation="2"/>
<feComposite in2="hardAlpha" operator="out"/>
<feColorMatrix type="matrix" values="0 0 0 0 0 0 0 0 0 0 0 0 0 0 0 0 0 0 0.25 0"/>
<feBlend mode="normal" in2="BackgroundImageFix" result="effect1_dropShadow_20_105"/>
<feBlend mode="normal" in="SourceGraphic" in2="effect1_dropShadow_20_105" result="shape"/>
</filter>
<filter id="filter10_d_20_105" x="118" y="186" width="63" height="63" filterUnits="userSpaceOnUse" color-interpolation-filters="sRGB">
<feFlood flood-opacity="0" result="BackgroundImageFix"/>
<feColorMatrix in="SourceAlpha" type="matrix" values="0 0 0 0 0 0 0 0 0 0 0 0 0 0 0 0 0 0 127 0" result="hardAlpha"/>
<feOffset dy="4"/>
<feGaussianBlur stdDeviation="2"/>
<feComposite in2="hardAlpha" operator="out"/>
<feColorMatrix type="matrix" values="0 0 0 0 0 0 0 0 0 0 0 0 0 0 0 0 0 0 0.25 0"/>
<feBlend mode="normal" in2="BackgroundImageFix" result="effect1_dropShadow_20_105"/>
<feBlend mode="normal" in="SourceGraphic" in2="effect1_dropShadow_20_105" result="shape"/>
</filter>
</defs>
</svg>
