<svg width="368" height="254" viewBox="0 0 368 254" fill="none" xmlns="http://www.w3.org/2000/svg">
<path d="M93 74L41 74C38 74 36 72 36 69L36 61C36 64 38.5 66 41 66L88 66C90.5 66 93 64 93 61L93 21C93 18 90.5 16 88 16L41 16C38.5 16 36 18 36 21L36 13C36 10 38 8 41 8L93 8C99.5 8 104 12.5 104 19L104 64C104 70.5 99.5 74 93 74Z" fill="#8A8A8A" fill-opacity="0.5"/>
<rect x="36" y="66" width="50" height="57" rx="5" transform="rotate(-90 36 66)" fill="#BEBEBE" fill-opacity="0.5"/>
<path d="M89 49L89 33.5" stroke="#515151" stroke-opacity="0.5" stroke-linecap="round"/>
<path d="M61 57.0312L43.8203 57.0312L43.8203 45.4414L45.8477 45.4414L45.8477 54.7578L51.168 54.7578L51.168 46.6953L53.1953 46.6953L53.1953 54.7578L61 54.7578L61 57.0312Z" fill="#515151" fill-opacity="0.5"/>
<g filter="url(#filter0_d_21_28)">
<path d="M93 158L41 158C38 158 36 156 36 153L36 145C36 148 38.5 150 41 150L88 150C90.5 150 93 148 93 145L93 105C93 102 90.5 100 88 100L41 100C38.5 100 36 102 36 105L36 97C36 94 38 92 41 92L93 92C99.5 92 104 96.5 104 103L104 148C104 154.5 99.5 158 93 158Z" fill="#8A8A8A"/>
</g>
<rect x="36" y="150" width="50" height="57" rx="5" transform="rotate(-90 36 150)" fill="#BEBEBE"/>
<path d="M61 141.148L43.8203 141.148L43.8203 135.23C43.8203 133.895 43.9023 132.875 44.0664 132.172C44.293 131.187 44.7031 130.348 45.2969 129.652C46.0625 128.746 47.043 128.07 48.2383 127.625C49.4258 127.172 50.7852 126.945 52.3164 126.945C53.6211 126.945 54.7773 127.098 55.7852 127.402C56.793 127.707 57.6289 128.098 58.293 128.574C58.9492 129.051 59.4687 129.574 59.8516 130.145C60.2266 130.707 60.5117 131.391 60.707 132.195C60.9023 132.992 61 133.91 61 134.949L61 141.148ZM58.9727 138.875L58.9727 135.207C58.9727 134.074 58.8672 133.187 58.6562 132.547C58.4453 131.898 58.1484 131.383 57.7656 131C57.2266 130.461 56.5039 130.043 55.5977 129.746C54.6836 129.441 53.5781 129.289 52.2812 129.289C50.4844 129.289 49.1055 129.586 48.1445 130.18C47.1758 130.766 46.5273 131.48 46.1992 132.324C45.9648 132.934 45.8477 133.914 45.8477 135.266L45.8477 138.875L58.9727 138.875Z" fill="#515151"/>
<path d="M93 242L41 242C38 242 36 240 36 237L36 229C36 232 38.5 234 41 234L88 234C90.5 234 93 232 93 229L93 189C93 186 90.5 184 88 184L41 184C38.5 184 36 186 36 189L36 181C36 178 38 176 41 176L93 176C99.5 176 104 180.5 104 187L104 232C104 238.5 99.5 242 93 242Z" fill="#8A8A8A" fill-opacity="0.5"/>
<rect x="36" y="234" width="50" height="57" rx="5" transform="rotate(-90 36 234)" fill="#BEBEBE" fill-opacity="0.5"/>
<path d="M55.4805 225.922L55.293 223.777C56.1523 223.676 56.8594 223.441 57.4141 223.074C57.9609 222.699 58.4062 222.121 58.75 221.34C59.0859 220.559 59.2539 219.68 59.2539 218.703C59.2539 217.836 59.125 217.07 58.8672 216.406C58.6094 215.742 58.2578 215.25 57.8125 214.93C57.3594 214.602 56.8672 214.437 56.3359 214.437C55.7969 214.437 55.3281 214.594 54.9297 214.906C54.5234 215.219 54.1836 215.734 53.9102 216.453C53.7305 216.914 53.4531 217.934 53.0781 219.512C52.6953 221.09 52.3359 222.195 52 222.828C51.5703 223.648 51.0391 224.262 50.4062 224.668C49.7656 225.066 49.0508 225.266 48.2617 225.266C47.3945 225.266 46.5859 225.02 45.8359 224.527C45.0781 224.035 44.5039 223.316 44.1133 222.371C43.7227 221.426 43.5273 220.375 43.5273 219.219C43.5273 217.945 43.7344 216.824 44.1484 215.855C44.5547 214.879 45.1562 214.129 45.9531 213.605C46.75 213.082 47.6523 212.801 48.6602 212.762L48.8242 214.941C47.7383 215.059 46.918 215.457 46.3633 216.137C45.8086 216.809 45.5312 217.805 45.5312 219.125C45.5312 220.5 45.7852 221.504 46.293 222.137C46.793 222.762 47.3984 223.074 48.1094 223.074C48.7266 223.074 49.2344 222.852 49.6328 222.406C50.0312 221.969 50.4414 220.828 50.8633 218.984C51.2773 217.133 51.6406 215.863 51.9531 215.176C52.4141 214.176 53 213.437 53.7109 212.961C54.4141 212.484 55.2266 212.246 56.1484 212.246C57.0625 212.246 57.9258 212.508 58.7383 213.031C59.543 213.555 60.1719 214.309 60.625 215.293C61.0703 216.27 61.293 217.371 61.293 218.598C61.293 220.152 61.0664 221.457 60.6133 222.512C60.1602 223.559 59.4805 224.383 58.5742 224.984C57.6602 225.578 56.6289 225.891 55.4805 225.922Z" fill="#515151" fill-opacity="0.5"/>
<g filter="url(#filter1_d_21_28)">
<path d="M270 176L322 176C325 176 327 178 327 181L327 189C327 186 324.5 184 322 184L275 184C272.5 184 270 186 270 189L270 229C270 232 272.5 234 275 234L322 234C324.5 234 327 232 327 229L327 237C327 240 325 242 322 242L270 242C263.5 242 259 237.5 259 231L259 186C259 179.5 263.5 176 270 176Z" fill="#8A8A8A"/>
</g>
<rect x="327" y="184" width="50" height="57" rx="5" transform="rotate(90 327 184)" fill="#BEBEBE"/>
<path d="M302 192.758L319.18 192.758L319.18 195.031L304.027 195.031L304.027 203.492L302 203.492L302 192.758Z" fill="#515151"/>
<path d="M270 92L322 92C325 92 327 94 327 97L327 105C327 102 324.5 100 322 100L275 100C272.5 100 270 102 270 105L270 145C270 148 272.5 150 275 150L322 150C324.5 150 327 148 327 145L327 153C327 156 325 158 322 158L270 158C263.5 158 259 153.5 259 147L259 102C259 95.5 263.5 92 270 92Z" fill="#8A8A8A" fill-opacity="0.5"/>
<rect x="327" y="100" width="50" height="57" rx="5" transform="rotate(90 327 100)" fill="#BEBEBE" fill-opacity="0.5"/>
<path d="M302 108.758L319.18 108.758L319.18 111.031L310.66 111.031L319.18 119.562L319.18 122.645L312.219 115.437L302 122.961L302 119.961L310.695 113.844L307.953 111.031L302 111.031L302 108.758Z" fill="#515151" fill-opacity="0.5"/>
<g filter="url(#filter2_d_21_28)">
<path d="M270 8L322 8C325 8 327 10 327 13L327 21C327 18 324.5 16 322 16L275 16C272.5 16 270 18 270 21L270 61C270 64 272.5 66 275 66L322 66C324.5 66 327 64 327 61L327 69C327 72 325 74 322 74L270 74C263.5 74 259 69.5 259 63L259 18C259 11.5 263.5 8 270 8Z" fill="#8A8A8A"/>
</g>
<rect x="327" y="16" width="50" height="57" rx="5" transform="rotate(90 327 16)" fill="#BEBEBE"/>
<path d="M274 33L274 48.5" stroke="#515151" stroke-linecap="round"/>
<path d="M306.875 23.6914L307.156 25.7422C305.844 25.7969 304.945 26.043 304.461 26.4805C303.977 26.918 303.734 27.5234 303.734 28.2969C303.734 28.8672 303.863 29.3594 304.121 29.7734C304.387 30.1875 304.742 30.4727 305.187 30.6289C305.641 30.7852 306.359 30.8633 307.344 30.8633L319.18 30.8633L319.18 33.1367L307.473 33.1367C306.035 33.1367 304.922 32.9609 304.133 32.6094C303.344 32.2656 302.742 31.7148 302.328 30.957C301.914 30.207 301.707 29.3242 301.707 28.3086C301.707 26.8008 302.141 25.6445 303.008 24.8398C303.875 24.043 305.164 23.6602 306.875 23.6914Z" fill="#515151"/>
<g filter="url(#filter3_d_21_28)">
<circle cx="145.5" cy="45.5" r="27.5" fill="#BEBEBE"/>
</g>
<g filter="url(#filter4_d_21_28)">
<circle cx="217.5" cy="45.5" r="27.5" fill="#515151"/>
</g>
<g filter="url(#filter5_d_21_28)">
<circle cx="145.5" cy="129.5" r="27.5" fill="#515151"/>
</g>
<g filter="url(#filter6_d_21_28)">
<circle cx="217.5" cy="213.5" r="27.5" fill="#515151"/>
</g>
<g filter="url(#filter7_d_21_28)">
<circle cx="217.5" cy="129.5" r="27.5" fill="#BEBEBE"/>
</g>
<g filter="url(#filter8_d_21_28)">
<circle cx="145.5" cy="213.5" r="27.5" fill="#BEBEBE"/>
</g>
<defs>
<filter id="filter0_d_21_28" x="32" y="92" width="76" height="74" filterUnits="userSpaceOnUse" color-interpolation-filters="sRGB">
<feFlood flood-opacity="0" result="BackgroundImageFix"/>
<feColorMatrix in="SourceAlpha" type="matrix" values="0 0 0 0 0 0 0 0 0 0 0 0 0 0 0 0 0 0 127 0" result="hardAlpha"/>
<feOffset dy="4"/>
<feGaussianBlur stdDeviation="2"/>
<feComposite in2="hardAlpha" operator="out"/>
<feColorMatrix type="matrix" values="0 0 0 0 0 0 0 0 0 0 0 0 0 0 0 0 0 0 0.25 0"/>
<feBlend mode="normal" in2="BackgroundImageFix" result="effect1_dropShadow_21_28"/>
<feBlend mode="normal" in="SourceGraphic" in2="effect1_dropShadow_21_28" result="shape"/>
</filter>
<filter id="filter1_d_21_28" x="255" y="176" width="76" height="74" filterUnits="userSpaceOnUse" color-interpolation-filters="sRGB">
<feFlood flood-opacity="0" result="BackgroundImageFix"/>
<feColorMatrix in="SourceAlpha" type="matrix" values="0 0 0 0 0 0 0 0 0 0 0 0 0 0 0 0 0 0 127 0" result="hardAlpha"/>
<feOffset dy="4"/>
<feGaussianBlur stdDeviation="2"/>
<feComposite in2="hardAlpha" operator="out"/>
<feColorMatrix type="matrix" values="0 0 0 0 0 0 0 0 0 0 0 0 0 0 0 0 0 0 0.25 0"/>
<feBlend mode="normal" in2="BackgroundImageFix" result="effect1_dropShadow_21_28"/>
<feBlend mode="normal" in="SourceGraphic" in2="effect1_dropShadow_21_28" result="shape"/>
</filter>
<filter id="filter2_d_21_28" x="255" y="8" width="76" height="74" filterUnits="userSpaceOnUse" color-interpolation-filters="sRGB">
<feFlood flood-opacity="0" result="BackgroundImageFix"/>
<feColorMatrix in="SourceAlpha" type="matrix" values="0 0 0 0 0 0 0 0 0 0 0 0 0 0 0 0 0 0 127 0" result="hardAlpha"/>
<feOffset dy="4"/>
<feGaussianBlur stdDeviation="2"/>
<feComposite in2="hardAlpha" operator="out"/>
<feColorMatrix type="matrix" values="0 0 0 0 0 0 0 0 0 0 0 0 0 0 0 0 0 0 0.25 0"/>
<feBlend mode="normal" in2="BackgroundImageFix" result="effect1_dropShadow_21_28"/>
<feBlend mode="normal" in="SourceGraphic" in2="effect1_dropShadow_21_28" result="shape"/>
</filter>
<filter id="filter3_d_21_28" x="114" y="18" width="63" height="63" filterUnits="userSpaceOnUse" color-interpolation-filters="sRGB">
<feFlood flood-opacity="0" result="BackgroundImageFix"/>
<feColorMatrix in="SourceAlpha" type="matrix" values="0 0 0 0 0 0 0 0 0 0 0 0 0 0 0 0 0 0 127 0" result="hardAlpha"/>
<feOffset dy="4"/>
<feGaussianBlur stdDeviation="2"/>
<feComposite in2="hardAlpha" operator="out"/>
<feColorMatrix type="matrix" values="0 0 0 0 0 0 0 0 0 0 0 0 0 0 0 0 0 0 0.25 0"/>
<feBlend mode="normal" in2="BackgroundImageFix" result="effect1_dropShadow_21_28"/>
<feBlend mode="normal" in="SourceGraphic" in2="effect1_dropShadow_21_28" result="shape"/>
</filter>
<filter id="filter4_d_21_28" x="186" y="18" width="63" height="63" filterUnits="userSpaceOnUse" color-interpolation-filters="sRGB">
<feFlood flood-opacity="0" result="BackgroundImageFix"/>
<feColorMatrix in="SourceAlpha" type="matrix" values="0 0 0 0 0 0 0 0 0 0 0 0 0 0 0 0 0 0 127 0" result="hardAlpha"/>
<feOffset dy="4"/>
<feGaussianBlur stdDeviation="2"/>
<feComposite in2="hardAlpha" operator="out"/>
<feColorMatrix type="matrix" values="0 0 0 0 0 0 0 0 0 0 0 0 0 0 0 0 0 0 0.25 0"/>
<feBlend mode="normal" in2="BackgroundImageFix" result="effect1_dropShadow_21_28"/>
<feBlend mode="normal" in="SourceGraphic" in2="effect1_dropShadow_21_28" result="shape"/>
</filter>
<filter id="filter5_d_21_28" x="114" y="102" width="63" height="63" filterUnits="userSpaceOnUse" color-interpolation-filters="sRGB">
<feFlood flood-opacity="0" result="BackgroundImageFix"/>
<feColorMatrix in="SourceAlpha" type="matrix" values="0 0 0 0 0 0 0 0 0 0 0 0 0 0 0 0 0 0 127 0" result="hardAlpha"/>
<feOffset dy="4"/>
<feGaussianBlur stdDeviation="2"/>
<feComposite in2="hardAlpha" operator="out"/>
<feColorMatrix type="matrix" values="0 0 0 0 0 0 0 0 0 0 0 0 0 0 0 0 0 0 0.25 0"/>
<feBlend mode="normal" in2="BackgroundImageFix" result="effect1_dropShadow_21_28"/>
<feBlend mode="normal" in="SourceGraphic" in2="effect1_dropShadow_21_28" result="shape"/>
</filter>
<filter id="filter6_d_21_28" x="186" y="186" width="63" height="63" filterUnits="userSpaceOnUse" color-interpolation-filters="sRGB">
<feFlood flood-opacity="0" result="BackgroundImageFix"/>
<feColorMatrix in="SourceAlpha" type="matrix" values="0 0 0 0 0 0 0 0 0 0 0 0 0 0 0 0 0 0 127 0" result="hardAlpha"/>
<feOffset dy="4"/>
<feGaussianBlur stdDeviation="2"/>
<feComposite in2="hardAlpha" operator="out"/>
<feColorMatrix type="matrix" values="0 0 0 0 0 0 0 0 0 0 0 0 0 0 0 0 0 0 0.25 0"/>
<feBlend mode="normal" in2="BackgroundImageFix" result="effect1_dropShadow_21_28"/>
<feBlend mode="normal" in="SourceGraphic" in2="effect1_dropShadow_21_28" result="shape"/>
</filter>
<filter id="filter7_d_21_28" x="186" y="102" width="63" height="63" filterUnits="userSpaceOnUse" color-interpolation-filters="sRGB">
<feFlood flood-opacity="0" result="BackgroundImageFix"/>
<feColorMatrix in="SourceAlpha" type="matrix" values="0 0 0 0 0 0 0 0 0 0 0 0 0 0 0 0 0 0 127 0" result="hardAlpha"/>
<feOffset dy="4"/>
<feGaussianBlur stdDeviation="2"/>
<feComposite in2="hardAlpha" operator="out"/>
<feColorMatrix type="matrix" values="0 0 0 0 0 0 0 0 0 0 0 0 0 0 0 0 0 0 0.25 0"/>
<feBlend mode="normal" in2="BackgroundImageFix" result="effect1_dropShadow_21_28"/>
<feBlend mode="normal" in="SourceGraphic" in2="effect1_dropShadow_21_28" result="shape"/>
</filter>
<filter id="filter8_d_21_28" x="114" y="186" width="63" height="63" filterUnits="userSpaceOnUse" color-interpolation-filters="sRGB">
<feFlood flood-opacity="0" result="BackgroundImageFix"/>
<feColorMatrix in="SourceAlpha" type="matrix" values="0 0 0 0 0 0 0 0 0 0 0 0 0 0 0 0 0 0 127 0" result="hardAlpha"/>
<feOffset dy="4"/>
<feGaussianBlur stdDeviation="2"/>
<feComposite in2="hardAlpha" operator="out"/>
<feColorMatrix type="matrix" values="0 0 0 0 0 0 0 0 0 0 0 0 0 0 0 0 0 0 0.25 0"/>
<feBlend mode="normal" in2="BackgroundImageFix" result="effect1_dropShadow_21_28"/>
<feBlend mode="normal" in="SourceGraphic" in2="effect1_dropShadow_21_28" result="shape"/>
</filter>
</defs>
</svg>
