<svg width="41" height="39" viewBox="0 0 41 39" fill="none" xmlns="http://www.w3.org/2000/svg">
<circle cx="4.47707" cy="4.47707" r="3.72707" stroke="#2683DA" stroke-width="1.5"/>
<circle cx="4.47707" cy="19.6991" r="3.72707" stroke="#2683DA" stroke-width="1.5"/>
<path fill-rule="evenodd" clip-rule="evenodd" d="M20.2648 7.07152C19.8332 7.31513 19.3347 7.45414 18.8037 7.45414C17.1595 7.45414 15.8266 6.12126 15.8266 4.47707C15.8266 2.83288 17.1595 1.5 18.8037 1.5C20.4479 1.5 21.7808 2.83288 21.7808 4.47707C21.7808 5.22311 21.5064 5.90505 21.053 6.42747L22.111 7.49475C22.8376 6.69884 23.2808 5.63971 23.2808 4.47707C23.2808 2.00445 21.2763 0 18.8037 0C16.3311 0 14.3266 2.00445 14.3266 4.47707C14.3266 6.94969 16.3311 8.95414 18.8037 8.95414C19.3153 8.95414 19.8069 8.86832 20.2648 8.71029V7.07152Z" fill="#2683DA"/>
<circle cx="4.47707" cy="34.4771" r="3.72707" stroke="#2683DA" stroke-width="1.5"/>
<path d="M38.526 24.8035H40.3255L39.0586 23.5254L20.7975 5.10443L19.5148 3.81057V5.63245V31.2841V33.0417L20.7838 31.8256L26.873 25.9902L31.0274 34.3718L31.3436 35.0096L31.997 34.7271L34.3863 33.6941L35.1227 33.3758L34.7555 32.6625L30.7103 24.8035H38.526Z" stroke="#2683DA" stroke-width="1.5"/>
<path fill-rule="evenodd" clip-rule="evenodd" d="M20.2648 15.4659C19.8069 15.3079 19.3153 15.222 18.8037 15.222C16.3311 15.222 14.3266 17.2265 14.3266 19.6991C14.3266 22.1717 16.3311 24.1762 18.8037 24.1762C19.3153 24.1762 19.8069 24.0904 20.2648 23.9323V22.2936C19.8332 22.5372 19.3347 22.6762 18.8037 22.6762C17.1595 22.6762 15.8266 21.3433 15.8266 19.6991C15.8266 18.0549 17.1595 16.722 18.8037 16.722C19.3347 16.722 19.8332 16.8611 20.2648 17.1047V15.4659Z" fill="#2683DA"/>
<path fill-rule="evenodd" clip-rule="evenodd" d="M20.2648 29.996C19.9029 29.9016 19.5231 29.8514 19.1316 29.8514C16.659 29.8514 14.6545 31.8558 14.6545 34.3284C14.6545 36.8011 16.659 38.8055 19.1316 38.8055C21.6042 38.8055 23.6087 36.8011 23.6087 34.3284C23.6087 32.6105 22.641 31.1185 21.221 30.3678L20.2648 31.2841V29.996ZM22.1087 34.3284C22.1087 35.9726 20.7758 37.3055 19.1316 37.3055C17.4874 37.3055 16.1545 35.9726 16.1545 34.3284C16.1545 32.6843 17.4874 31.3514 19.1316 31.3514C20.7758 31.3514 22.1087 32.6843 22.1087 34.3284Z" fill="#2683DA"/>
</svg>
