<?xml version="1.0" encoding="UTF-8" standalone="no"?><!DOCTYPE svg PUBLIC "-//W3C//DTD SVG 1.1//EN" "http://www.w3.org/Graphics/SVG/1.1/DTD/svg11.dtd"><svg width="100%" height="100%" viewBox="0 0 1000 1000" version="1.1" xmlns="http://www.w3.org/2000/svg" xmlns:xlink="http://www.w3.org/1999/xlink" xml:space="preserve" xmlns:serif="http://www.serif.com/" style="fill-rule:evenodd;clip-rule:evenodd;stroke-linejoin:round;stroke-miterlimit:2;"><g><path d="M890.745,946.777c0,29.395 -23.828,53.223 -53.223,53.223l-536.499,-0c-29.392,-0 -53.221,-23.828 -53.221,-53.223l0,-384.28c0,-29.396 -23.828,-53.224 -53.22,-53.224l-32.108,0c-29.393,0 -53.219,-23.828 -53.219,-53.211l-0,-402.842c-0,-14.115 5.606,-27.651 15.587,-37.633c9.981,-9.98 23.517,-15.587 37.632,-15.587l675.048,-0c14.116,-0 27.663,5.607 37.635,15.587c9.984,9.982 15.588,23.518 15.588,37.633l0,893.557Z" style="fill:#303030;"/><g><path d="M674.79,915.838c39.93,0.039 79.861,0.233 119.791,-0.007c8.379,-0.158 15.883,-7.261 16.047,-16.049c0.053,-8.727 0.055,-17.454 0,-26.181c-0.159,-8.432 -7.392,-15.983 -16.261,-16.04l-29.477,0l-0,-7.732c9.932,-0 19.865,-0.062 29.798,0.001c12.399,0.236 23.431,10.938 23.673,23.673c0.054,8.697 0.001,17.393 0.001,26.09c-0.076,12.538 -10.837,23.892 -23.972,23.972l-119.592,-0l20.481,13.611l-4.281,6.44l-31.14,-20.698c-1.518,-1.077 -1.427,-1.552 -1.611,-2.278c-0.39,-1.56 0.015,-3.03 1.611,-4.162l31.14,-20.698c1.427,2.147 2.854,4.293 4.281,6.44l-20.489,13.618Z" style="fill:#fff;"/></g><g><path d="M253.836,294.263l0,-166.728l36.79,-0l-0,183.401c-0,13.169 0.362,22.562 1.087,28.181c0.725,5.617 1.993,9.937 3.806,12.957c3.866,7.128 9.454,12.505 16.763,16.129c7.309,3.625 21.109,5.438 31.499,5.438c10.511,-0 24.34,-1.813 31.589,-5.438c7.249,-3.624 12.868,-9.001 16.854,-16.129c1.812,-3.02 3.081,-7.309 3.806,-12.866c0.724,-5.558 1.088,-14.861 1.088,-27.91l-0,-183.763l36.607,-0l-0,166.728c-0,27.668 -1.721,47.331 -5.165,58.989c-3.443,11.66 -9.394,21.294 -17.85,28.907c-7.975,7.128 -17.096,12.443 -27.366,15.947c-10.269,3.505 -26.756,5.256 -39.563,5.256c-12.687,0 -29.112,-1.751 -39.382,-5.256c-10.269,-3.504 -19.452,-8.819 -27.546,-15.947c-8.337,-7.492 -14.257,-17.187 -17.761,-29.088c-3.504,-11.9 -5.256,-31.503 -5.256,-58.808Z" style="fill:#fff;fill-rule:nonzero;"/></g><g><path d="M551.366,127.535l206.417,-0l0,30.807l-84.633,0l0,239.764l-36.789,-0l-0,-239.764l-84.995,0l-0,-30.807Z" style="fill:#fff;fill-rule:nonzero;"/></g><g><rect x="369.932" y="716.782" width="63.792" height="73.216" style="fill:#fff;"/></g><g><path d="M745.392,775.139c-9.302,4.953 -18.853,8.668 -28.63,11.145c-9.789,2.476 -20.177,3.715 -31.177,3.715c-34.673,0 -61.584,-12.263 -80.731,-36.789c-19.159,-24.526 -28.732,-59.02 -28.732,-103.481c-0,-44.22 9.641,-78.683 28.913,-103.391c19.272,-24.707 46.114,-37.06 80.55,-37.06c11,0 21.388,1.238 31.177,3.715c9.777,2.476 19.328,6.192 28.63,11.146l0,37.514c-8.94,-7.371 -18.547,-12.988 -28.811,-16.855c-10.276,-3.866 -20.607,-5.798 -30.996,-5.798c-23.798,-0 -41.621,9.182 -53.458,27.546c-11.837,18.364 -17.756,46.092 -17.756,83.183c0,36.97 5.919,64.637 17.756,83.001c11.837,18.366 29.66,27.548 53.458,27.548c10.638,-0 21.06,-1.934 31.267,-5.8c10.208,-3.865 19.725,-9.484 28.54,-16.854l0,37.515Z" style="fill:#fff;fill-rule:nonzero;"/></g></g></svg>