<svg width="123" height="71" viewBox="0 0 123 71" fill="none" xmlns="http://www.w3.org/2000/svg">
<mask id="path-1-inside-1_1_21" fill="white">
<path d="M0 5C0 2.23858 2.23858 0 5 0H118C120.761 0 123 2.23858 123 5V66C123 68.7614 120.761 71 118 71H5C2.23858 71 0 68.7614 0 66V5Z"/>
</mask>
<path d="M0 5C0 2.23858 2.23858 0 5 0H118C120.761 0 123 2.23858 123 5V66C123 68.7614 120.761 71 118 71H5C2.23858 71 0 68.7614 0 66V5Z" fill="#EAF4FD"/>
<path d="M-3 5C-3 0.581722 0.581722 -3 5 -3H115C119.418 -3 123 0.581722 123 5C123 3.89543 120.761 3 118 3H5C3.89543 3 3 3.89543 3 5H-3ZM123 66C123 70.4183 119.418 74 115 74H5C0.581722 74 -3 70.4183 -3 66H3C3 67.1046 3.89543 68 5 68H118C120.761 68 123 67.1046 123 66ZM5 74C0.581722 74 -3 70.4183 -3 66V5C-3 0.581722 0.581722 -3 5 -3V3C3.89543 3 3 3.89543 3 5V66C3 67.1046 3.89543 68 5 68V74ZM123 0V71V0Z" fill="#2683DA" mask="url(#path-1-inside-1_1_21)"/>
<circle cx="21.037" cy="20.3827" r="4.38272" fill="#2683DA"/>
<circle cx="21.037" cy="35.2839" r="4.38272" fill="#2683DA"/>
<circle cx="35.0617" cy="20.3827" r="4.38272" fill="#2683DA"/>
<circle cx="35.0617" cy="35.2839" r="4.38272" fill="#2683DA"/>
<circle cx="21.037" cy="50.1852" r="4.38272" fill="#2683DA"/>
<g filter="url(#filter0_d_1_21)">
<path d="M56.5988 11L56.5988 59.0988" stroke="#2683DA"/>
</g>
<defs>
<filter id="filter0_d_1_21" x="52.0988" y="11" width="9" height="56.0988" filterUnits="userSpaceOnUse" color-interpolation-filters="sRGB">
<feFlood flood-opacity="0" result="BackgroundImageFix"/>
<feColorMatrix in="SourceAlpha" type="matrix" values="0 0 0 0 0 0 0 0 0 0 0 0 0 0 0 0 0 0 127 0" result="hardAlpha"/>
<feOffset dy="4"/>
<feGaussianBlur stdDeviation="2"/>
<feComposite in2="hardAlpha" operator="out"/>
<feColorMatrix type="matrix" values="0 0 0 0 0 0 0 0 0 0 0 0 0 0 0 0 0 0 0.25 0"/>
<feBlend mode="normal" in2="BackgroundImageFix" result="effect1_dropShadow_1_21"/>
<feBlend mode="normal" in="SourceGraphic" in2="effect1_dropShadow_1_21" result="shape"/>
</filter>
</defs>
</svg>
