<svg width="134" height="59" viewBox="0 0 134 59" fill="none" xmlns="http://www.w3.org/2000/svg">
<circle cx="6.61957" cy="6.61957" r="6.61957" fill="#2683DA"/>
<circle cx="6.61957" cy="29.1261" r="6.61957" fill="#EAF4FD"/>
<circle cx="27.8022" cy="6.61957" r="6.61957" fill="#EAF4FD"/>
<circle cx="27.8022" cy="29.1261" r="6.61957" fill="#EAF4FD"/>
<circle cx="28.287" cy="50.7562" r="6.61957" fill="#EAF4FD"/>
<circle cx="6.61957" cy="51.6326" r="6.61957" fill="#EAF4FD"/>
<path d="M113.84 11.84C113.6 12.6 113.44 13.32 113.28 13.96C112.52 17.68 111.84 23.44 111.84 28.4C111.84 34.72 113 39.2 114.32 43.24L109.72 44.6C108.52 41 107.36 35.08 107.36 29.2C107.36 23.96 108.08 18.08 108.52 14.12C108.6 13.32 108.68 12.4 108.64 11.68L113.84 11.84ZM106.68 16.24C114.28 16.24 120.32 15.88 126.44 14.4L126.48 19C121 20 112.6 20.6 106.56 20.6C104.44 20.6 101.32 20.4 99.44 20.32L99.32 15.72C100.76 15.92 104.24 16.24 106.68 16.24ZM123.96 22.12C123.64 22.84 123.04 24.68 122.76 25.52C120.48 32.72 116.36 38.12 112.56 40.92C109.96 42.84 106.48 44.6 103 44.6C100.08 44.6 97.64 42.84 97.64 38.76C97.64 33.12 102.68 27.24 109.04 24.92C111.68 23.96 114.96 23.36 117.96 23.36C125.44 23.36 130.96 27.68 130.96 33.92C130.96 39.6 127.6 45.08 117.8 46.6L115.12 42.36C122.84 41.52 126 37.64 126 33.68C126 30.28 123.08 27.4 117.68 27.4C114.04 27.4 111.16 28.44 109.2 29.32C105.2 31.2 102.36 35.04 102.36 37.72C102.36 39.04 102.88 39.72 104.2 39.72C106.08 39.72 108.76 38.4 111.2 36.12C114.12 33.44 116.84 29.88 118.44 24.36C118.72 23.52 119 21.8 119.04 20.92L123.96 22.12Z" fill="#2683DA"/>
<path d="M73.4369 27.5389C74.2826 28.3294 74.2826 29.6706 73.4369 30.4611L62.6157 40.5763C61.3377 41.7709 59.25 40.8647 59.25 39.1152L59.25 18.8848C59.25 17.1353 61.3377 16.229 62.6157 17.4237L73.4369 27.5389Z" fill="#2683DA"/>
</svg>
