<?xml version="1.0" encoding="UTF-8" standalone="no"?>
<!DOCTYPE svg PUBLIC "-//W3C//DTD SVG 1.1//EN" "http://www.w3.org/Graphics/SVG/1.1/DTD/svg11.dtd">
<svg width="100%" height="100%" viewBox="0 0 3957 827" version="1.1" xmlns="http://www.w3.org/2000/svg" xmlns:xlink="http://www.w3.org/1999/xlink" xml:space="preserve" xmlns:serif="http://www.serif.com/" style="fill-rule:evenodd;clip-rule:evenodd;stroke-linejoin:round;stroke-miterlimit:2;">
    <g transform="matrix(1,0,0,1,-446.251,-649.658)">
        <path d="M1043.94,658.899C1055.35,658.899 1066.3,663.431 1074.36,671.498C1082.43,679.566 1086.96,690.507 1086.96,701.916C1086.96,841.998 1086.96,1284.09 1086.96,1424.17C1086.96,1447.93 1067.7,1467.19 1043.94,1467.19L610.293,1467.19C586.859,1466.6 567.279,1448.06 567.275,1424.17C567.256,1320.63 567.293,1217.1 567.275,1113.56C567.274,1109.94 566.823,1106.32 565.921,1102.81C561.494,1085.6 546.341,1072.56 528.655,1070.77C516.416,1069.53 503.937,1071.91 491.754,1070.05C471.023,1066.88 455.291,1048.47 455.288,1027.53C455.269,918.989 455.27,810.453 455.288,701.916C455.291,678.051 474.885,659.479 498.305,658.899L1043.94,658.899ZM1009.08,1405.41C1019.69,1405.34 1028.39,1396.17 1028.45,1386.03C1028.45,1379 1028.5,1371.97 1028.45,1364.94C1028.26,1354.65 1019.34,1346 1009.32,1345.81C1001.29,1345.76 993.26,1345.81 985.231,1345.81L985.231,1352.06L1009.06,1352.06C1016.23,1352.1 1022.07,1358.21 1022.2,1365.02C1022.25,1372.08 1022.25,1379.13 1022.2,1386.18C1022.07,1393.29 1016,1399.03 1009.23,1399.16C976.956,1399.35 944.68,1399.19 912.405,1399.16L928.965,1388.15C927.812,1386.42 926.659,1384.68 925.506,1382.95L900.335,1399.68C899.046,1400.6 898.718,1401.78 899.034,1403.04C899.182,1403.63 899.109,1404.01 900.335,1404.88L925.506,1421.62L928.965,1416.41L912.412,1405.41L1009.08,1405.41ZM717.555,1297.45L717.555,1238.27L665.992,1238.27L665.992,1297.45L717.555,1297.45ZM969.473,1285.44C961.954,1289.44 954.239,1292.44 946.329,1294.44C938.419,1296.45 930.02,1297.45 921.133,1297.45C893.106,1297.45 871.353,1287.54 855.875,1267.71C840.396,1247.89 832.657,1220.01 832.657,1184.07C832.657,1148.33 840.445,1120.47 856.021,1100.5C871.597,1080.53 893.301,1070.54 921.133,1070.54C930.02,1070.54 938.419,1071.54 946.329,1073.55C954.239,1075.55 961.954,1078.55 969.473,1082.56L969.473,1112.88C962.247,1106.92 954.483,1102.38 946.182,1099.25C937.881,1096.13 929.532,1094.57 921.133,1094.57C901.895,1094.57 887.491,1101.99 877.92,1116.83C868.35,1131.68 863.565,1154.09 863.565,1184.07C863.565,1213.95 868.35,1236.32 877.92,1251.16C887.491,1266 901.895,1273.42 921.133,1273.42C929.727,1273.42 938.15,1271.86 946.402,1268.74C954.654,1265.61 962.344,1261.07 969.473,1255.11L969.473,1285.44ZM572.152,896.749L572.152,761.984L601.889,761.984L601.889,910.226C601.889,920.871 602.182,928.463 602.768,933.004C603.354,937.545 604.379,941.037 605.844,943.478C608.969,949.24 613.485,953.585 619.394,956.515C625.302,959.445 636.455,960.91 644.854,960.91C653.35,960.91 664.527,959.445 670.387,956.515C676.246,953.585 680.787,949.24 684.01,943.478C685.475,941.037 686.5,937.57 687.086,933.078C687.672,928.585 687.965,921.066 687.965,910.519L687.965,761.984L717.555,761.984L717.555,896.749C717.555,919.113 716.163,935.006 713.38,944.43C710.597,953.854 705.787,961.642 698.951,967.794C692.506,973.556 685.133,977.853 676.832,980.685C668.531,983.517 655.205,984.933 644.854,984.933C634.6,984.933 621.322,983.517 613.022,980.685C604.721,977.853 597.299,973.556 590.756,967.794C584.018,961.74 579.233,953.903 576.401,944.284C573.568,934.664 572.152,918.82 572.152,896.749ZM979.488,786.886L979.488,761.984L812.642,761.984L812.642,786.886L881.343,786.886L881.343,980.685L911.08,980.685L911.08,786.886L979.488,786.886Z" style="fill:white;"/>
    </g>
    <g transform="matrix(1,0,0,1,3.39912,-101.36)">
        <path d="M846.627,594.186L846.627,402.161L897.538,402.161L897.538,594.186C897.538,622.039 902.472,642.515 912.341,655.611C922.21,668.708 937.474,675.257 958.134,675.257C982.114,675.257 1000.47,666.817 1013.2,649.939C1025.92,633.061 1032.29,608.85 1032.29,577.307L1032.29,402.161L1083.48,402.161L1083.48,711.503L1032.29,711.503L1032.29,665.019C1023.25,682.912 1010.94,696.47 995.349,705.693C979.762,714.916 961.546,719.527 940.702,719.527C908.975,719.527 885.364,709.151 869.869,688.399C854.374,667.648 846.627,636.243 846.627,594.186Z" style="fill:white;fill-rule:nonzero;"/>
        <path d="M1289.56,313.619L1289.56,401.607L1405.21,401.607L1405.21,441.175L1289.56,441.175L1289.56,609.404C1289.56,632.277 1293.89,648.233 1302.56,657.272C1311.23,666.31 1326.36,670.83 1347.94,670.83L1405.21,670.83L1405.21,711.503L1342.96,711.503C1304.77,711.503 1277.84,703.848 1262.16,688.538C1246.48,673.228 1238.64,646.849 1238.64,609.404L1238.64,441.175L1155.91,441.175L1155.91,401.607L1238.64,401.607L1238.64,313.619L1289.56,313.619Z" style="fill:white;fill-rule:nonzero;"/>
        <rect x="1554.3" y="599.719" width="97.396" height="111.784" style="fill:white;fill-rule:nonzero;"/>
        <path d="M2067.23,695.732C2053.58,703.664 2039.51,709.613 2025.03,713.579C2010.55,717.544 1995.75,719.527 1980.62,719.527C1932.66,719.527 1895.17,705.139 1868.15,676.363C1841.13,647.587 1827.61,607.744 1827.61,556.832C1827.61,505.921 1841.13,466.077 1868.15,437.301C1895.17,408.525 1932.66,394.137 1980.62,394.137C1995.57,394.137 2010.14,396.074 2024.34,399.947C2038.55,403.821 2052.84,409.816 2067.23,417.932L2067.23,471.334C2053.76,459.344 2040.25,450.674 2026.69,445.325C2013.13,439.976 1997.78,437.301 1980.62,437.301C1948.71,437.301 1924.18,447.631 1907.02,468.29C1889.87,488.95 1881.29,518.464 1881.29,556.832C1881.29,595.016 1889.91,624.483 1907.16,645.235C1924.41,665.987 1948.9,676.363 1980.62,676.363C1998.33,676.363 2014.2,673.643 2028.22,668.201C2042.23,662.759 2055.24,654.32 2067.23,642.884L2067.23,695.732Z" style="fill:rgb(0,211,114);fill-rule:nonzero;"/>
        <path d="M2271.1,437.301C2245.27,437.301 2225.72,447.354 2212.44,467.46C2199.16,487.567 2192.51,517.357 2192.51,556.832C2192.51,596.122 2199.16,625.867 2212.44,646.066C2225.72,666.264 2245.27,676.363 2271.1,676.363C2297.11,676.363 2316.75,666.264 2330.03,646.066C2343.31,625.867 2349.95,596.122 2349.95,556.832C2349.95,517.357 2343.31,487.567 2330.03,467.46C2316.75,447.354 2297.11,437.301 2271.1,437.301ZM2271.1,394.137C2314.08,394.137 2346.96,408.064 2369.74,435.917C2392.52,463.771 2403.91,504.076 2403.91,556.832C2403.91,609.773 2392.56,650.124 2369.88,677.885C2347.19,705.647 2314.26,719.527 2271.1,719.527C2228.12,719.527 2195.28,705.647 2172.59,677.885C2149.91,650.124 2138.56,609.773 2138.56,556.832C2138.56,504.076 2149.91,463.771 2172.59,435.917C2195.28,408.064 2228.12,394.137 2271.1,394.137Z" style="fill:rgb(0,211,114);fill-rule:nonzero;"/>
        <path d="M2665.05,441.175L2665.05,280.969L2715.96,280.969L2715.96,711.503L2665.05,711.503L2665.05,672.49C2656.57,687.8 2645.27,699.467 2631.16,707.491C2617.05,715.515 2600.77,719.527 2582.32,719.527C2544.87,719.527 2515.41,705.001 2493.92,675.948C2472.43,646.896 2461.68,606.821 2461.68,555.725C2461.68,505.367 2472.47,465.846 2494.05,437.163C2515.64,408.479 2545.06,394.137 2582.32,394.137C2600.95,394.137 2617.37,398.149 2631.57,406.173C2645.78,414.197 2656.93,425.864 2665.05,441.175ZM2515.36,556.832C2515.36,596.307 2521.63,626.098 2534.18,646.204C2546.72,666.31 2565.26,676.363 2589.79,676.363C2614.32,676.363 2633,666.218 2645.82,645.927C2658.64,625.636 2665.05,595.938 2665.05,556.832C2665.05,517.542 2658.64,487.797 2645.82,467.599C2633,447.4 2614.32,437.301 2589.79,437.301C2565.26,437.301 2546.72,447.354 2534.18,467.46C2521.63,487.567 2515.36,517.357 2515.36,556.832Z" style="fill:rgb(0,211,114);fill-rule:nonzero;"/>
        <path d="M3064.54,531.1L3064.54,556.002L2844.02,556.002L2844.02,557.662C2842.54,599.904 2850.61,630.248 2868.23,648.694C2885.84,667.14 2910.7,676.363 2942.8,676.363C2959.03,676.363 2976,673.781 2993.71,668.616C3011.41,663.451 3030.32,655.611 3050.43,645.097L3050.43,695.732C3031.06,703.664 3012.38,709.613 2994.4,713.579C2976.41,717.544 2959.03,719.527 2942.24,719.527C2894.1,719.527 2856.47,705.093 2829.35,676.225C2802.24,647.357 2788.68,607.559 2788.68,556.832C2788.68,507.396 2801.96,467.922 2828.52,438.408C2855.08,408.894 2890.5,394.137 2934.77,394.137C2974.25,394.137 3005.37,407.51 3028.16,434.257C3050.94,461.004 3063.06,493.285 3064.54,531.1ZM3013.63,516.158C3011.41,494.761 3003.62,476.268 2990.25,460.681C2976.88,445.094 2957.64,437.301 2932.56,437.301C2908.02,437.301 2887.83,445.417 2871.96,461.65C2856.1,477.882 2847.43,496.144 2845.95,516.435L3013.63,516.158Z" style="fill:rgb(0,211,114);fill-rule:nonzero;"/>
        <path d="M3318.21,253.854C3293.68,295.911 3275.37,337.83 3263.29,379.61C3251.21,421.391 3245.16,463.494 3245.16,505.921C3245.16,548.162 3251.21,590.22 3263.29,632.093C3275.37,673.965 3293.68,716.115 3318.21,758.541L3273.94,758.541C3246.09,714.639 3225.34,671.89 3211.68,630.294C3198.03,588.698 3191.21,547.24 3191.21,505.921C3191.21,464.786 3198.03,423.374 3211.68,381.686C3225.34,339.997 3246.09,297.387 3273.94,253.854L3318.21,253.854Z" style="fill:white;fill-rule:nonzero;"/>
        <path d="M3504.92,253.854L3549.2,253.854C3577.05,297.387 3597.8,339.997 3611.45,381.686C3625.1,423.374 3631.93,464.786 3631.93,505.921C3631.93,547.425 3625.1,589.021 3611.45,630.709C3597.8,672.397 3577.05,715.008 3549.2,758.541L3504.92,758.541C3529.46,715.746 3547.76,673.412 3559.85,631.539C3571.93,589.666 3577.97,547.793 3577.97,505.921C3577.97,463.863 3571.93,421.898 3559.85,380.025C3547.76,338.153 3529.46,296.095 3504.92,253.854Z" style="fill:white;fill-rule:nonzero;"/>
        <path d="M3857.93,611.617L3944.26,611.617L3944.26,684.941L3889.75,790.637L3830.54,790.637L3857.93,684.941L3857.93,611.617ZM3854.33,401.884L3940.66,401.884L3940.66,501.77L3854.33,501.77L3854.33,401.884Z" style="fill:white;fill-rule:nonzero;"/>
    </g>
</svg>
