<?xml version="1.0" encoding="UTF-8" standalone="no"?>
<!DOCTYPE svg PUBLIC "-//W3C//DTD SVG 1.1//EN" "http://www.w3.org/Graphics/SVG/1.1/DTD/svg11.dtd">
<svg width="100%" height="100%" viewBox="0 0 3957 827" version="1.1" xmlns="http://www.w3.org/2000/svg" xmlns:xlink="http://www.w3.org/1999/xlink" xml:space="preserve" xmlns:serif="http://www.serif.com/" style="fill-rule:evenodd;clip-rule:evenodd;stroke-linejoin:round;stroke-miterlimit:2;">
    <g transform="matrix(1,0,0,1,-446.251,-649.658)">
        <path d="M1086.96,1424.17C1086.96,1447.93 1067.7,1467.19 1043.94,1467.19L610.293,1467.19C586.535,1467.19 567.275,1447.93 567.275,1424.17C567.275,1347.9 567.275,1189.83 567.275,1113.56C567.275,1089.8 548.015,1070.54 524.257,1070.54C515.748,1070.54 506.815,1070.54 498.305,1070.54C474.547,1070.54 455.288,1051.28 455.288,1027.53L455.288,701.916C455.288,690.507 459.82,679.566 467.887,671.498C475.955,663.431 486.896,658.899 498.305,658.899C613.611,658.899 928.64,658.899 1043.94,658.899C1055.35,658.899 1066.3,663.431 1074.36,671.498C1082.43,679.566 1086.96,690.507 1086.96,701.916C1086.96,841.998 1086.96,1284.09 1086.96,1424.17Z" style="fill:rgb(48,48,48);"/>
        <g transform="matrix(1,0,0,1,446.251,649.658)">
            <path d="M466.154,749.505C498.429,749.536 530.705,749.693 562.98,749.499C569.753,749.371 575.818,743.63 575.951,736.527C575.994,729.473 575.995,722.419 575.951,715.365C575.822,708.549 569.976,702.446 562.807,702.4L538.981,702.4L538.981,696.15C547.009,696.15 555.038,696.1 563.067,696.151C573.089,696.342 582.006,704.992 582.201,715.286C582.245,722.315 582.202,729.344 582.202,736.374C582.141,746.508 573.443,755.686 562.826,755.75L466.161,755.75L482.715,766.752L479.255,771.957L454.085,755.227C452.858,754.357 452.931,753.973 452.783,753.386C452.467,752.125 452.795,750.937 454.085,750.022L479.255,733.292C480.408,735.027 481.562,736.762 482.715,738.497L466.154,749.505Z" style="fill:white;"/>
        </g>
        <g transform="matrix(0.914693,0,0,0.914693,80.512,71.8619)">
            <path d="M537.492,901.819L537.492,754.485L570.002,754.485L570.002,916.552C570.002,928.189 570.322,936.49 570.963,941.455C571.603,946.419 572.724,950.236 574.326,952.905C577.742,959.204 582.68,963.955 589.139,967.158C595.598,970.361 607.792,971.963 616.974,971.963C626.262,971.963 638.482,970.361 644.888,967.158C651.294,963.955 656.259,959.204 659.782,952.905C661.383,950.236 662.504,946.446 663.145,941.535C663.785,936.624 664.106,928.403 664.106,916.872L664.106,754.485L696.455,754.485L696.455,901.819C696.455,926.268 694.934,943.644 691.891,953.946C688.848,964.249 683.59,972.763 676.117,979.49C669.07,985.789 661.01,990.486 651.935,993.582C642.86,996.679 628.291,998.227 616.974,998.227C605.763,998.227 591.248,996.679 582.173,993.582C573.098,990.486 564.984,985.789 557.831,979.49C550.464,972.87 545.233,964.302 542.136,953.786C539.04,943.27 537.492,925.947 537.492,901.819Z" style="fill:white;fill-rule:nonzero;"/>
        </g>
        <g transform="matrix(0.914693,0,0,0.914693,151.035,71.8619)">
            <path d="M723.311,754.485L905.717,754.485L905.717,781.709L830.929,781.709L830.929,993.582L798.419,993.582L798.419,781.709L723.311,781.709L723.311,754.485Z" style="fill:white;fill-rule:nonzero;"/>
        </g>
        <g transform="matrix(0.914693,0,0,0.914693,-226.328,388.625)">
            <rect x="975.54" y="928.883" width="56.371" height="64.699" style="fill:white;fill-rule:nonzero;"/>
        </g>
        <g transform="matrix(0.914693,0,0,0.914693,-203.658,384.377)">
            <path d="M1282.54,985.095C1274.32,989.472 1265.88,992.755 1257.24,994.944C1248.59,997.132 1239.41,998.227 1229.69,998.227C1199.05,998.227 1175.27,987.39 1158.35,965.717C1141.42,944.044 1132.96,913.563 1132.96,874.274C1132.96,835.198 1141.48,804.744 1158.51,782.91C1175.54,761.077 1199.26,750.161 1229.69,750.161C1239.41,750.161 1248.59,751.255 1257.24,753.444C1265.88,755.632 1274.32,758.915 1282.54,763.293L1282.54,796.443C1274.64,789.93 1266.15,784.966 1257.08,781.549C1248,778.133 1238.87,776.425 1229.69,776.425C1208.66,776.425 1192.91,784.539 1182.45,800.767C1171.99,816.995 1166.76,841.497 1166.76,874.274C1166.76,906.943 1171.99,931.392 1182.45,947.62C1192.91,963.849 1208.66,971.963 1229.69,971.963C1239.09,971.963 1248.3,970.254 1257.32,966.838C1266.34,963.422 1274.75,958.457 1282.54,951.944L1282.54,985.095Z" style="fill:white;fill-rule:nonzero;"/>
        </g>
    </g>
    <g transform="matrix(1,0,0,1,3.39912,-101.36)">
        <path d="M846.627,594.186L846.627,402.161L897.538,402.161L897.538,594.186C897.538,622.039 902.472,642.515 912.341,655.611C922.21,668.708 937.474,675.257 958.134,675.257C982.114,675.257 1000.47,666.817 1013.2,649.939C1025.92,633.061 1032.29,608.85 1032.29,577.307L1032.29,402.161L1083.48,402.161L1083.48,711.503L1032.29,711.503L1032.29,665.019C1023.25,682.912 1010.94,696.47 995.349,705.693C979.762,714.916 961.546,719.527 940.702,719.527C908.975,719.527 885.364,709.151 869.869,688.399C854.374,667.648 846.627,636.243 846.627,594.186Z" style="fill:rgb(103,103,103);fill-rule:nonzero;"/>
        <path d="M1289.56,313.619L1289.56,401.607L1405.21,401.607L1405.21,441.175L1289.56,441.175L1289.56,609.404C1289.56,632.277 1293.89,648.233 1302.56,657.272C1311.23,666.31 1326.36,670.83 1347.94,670.83L1405.21,670.83L1405.21,711.503L1342.96,711.503C1304.77,711.503 1277.84,703.848 1262.16,688.538C1246.48,673.228 1238.64,646.849 1238.64,609.404L1238.64,441.175L1155.91,441.175L1155.91,401.607L1238.64,401.607L1238.64,313.619L1289.56,313.619Z" style="fill:rgb(103,103,103);fill-rule:nonzero;"/>
        <rect x="1554.3" y="599.719" width="97.396" height="111.784" style="fill:rgb(103,103,103);fill-rule:nonzero;"/>
        <path d="M2067.23,695.732C2053.58,703.664 2039.51,709.613 2025.03,713.579C2010.55,717.544 1995.75,719.527 1980.62,719.527C1932.66,719.527 1895.17,705.139 1868.15,676.363C1841.13,647.587 1827.61,607.744 1827.61,556.832C1827.61,505.921 1841.13,466.077 1868.15,437.301C1895.17,408.525 1932.66,394.137 1980.62,394.137C1995.57,394.137 2010.14,396.074 2024.34,399.947C2038.55,403.821 2052.84,409.816 2067.23,417.932L2067.23,471.334C2053.76,459.344 2040.25,450.674 2026.69,445.325C2013.13,439.976 1997.78,437.301 1980.62,437.301C1948.71,437.301 1924.18,447.631 1907.02,468.29C1889.87,488.95 1881.29,518.464 1881.29,556.832C1881.29,595.016 1889.91,624.483 1907.16,645.235C1924.41,665.987 1948.9,676.363 1980.62,676.363C1998.33,676.363 2014.2,673.643 2028.22,668.201C2042.23,662.759 2055.24,654.32 2067.23,642.884L2067.23,695.732Z" style="fill:rgb(0,211,114);fill-rule:nonzero;"/>
        <path d="M2271.1,437.301C2245.27,437.301 2225.72,447.354 2212.44,467.46C2199.16,487.567 2192.51,517.357 2192.51,556.832C2192.51,596.122 2199.16,625.867 2212.44,646.066C2225.72,666.264 2245.27,676.363 2271.1,676.363C2297.11,676.363 2316.75,666.264 2330.03,646.066C2343.31,625.867 2349.95,596.122 2349.95,556.832C2349.95,517.357 2343.31,487.567 2330.03,467.46C2316.75,447.354 2297.11,437.301 2271.1,437.301ZM2271.1,394.137C2314.08,394.137 2346.96,408.064 2369.74,435.917C2392.52,463.771 2403.91,504.076 2403.91,556.832C2403.91,609.773 2392.56,650.124 2369.88,677.885C2347.19,705.647 2314.26,719.527 2271.1,719.527C2228.12,719.527 2195.28,705.647 2172.59,677.885C2149.91,650.124 2138.56,609.773 2138.56,556.832C2138.56,504.076 2149.91,463.771 2172.59,435.917C2195.28,408.064 2228.12,394.137 2271.1,394.137Z" style="fill:rgb(0,211,114);fill-rule:nonzero;"/>
        <path d="M2665.05,441.175L2665.05,280.969L2715.96,280.969L2715.96,711.503L2665.05,711.503L2665.05,672.49C2656.57,687.8 2645.27,699.467 2631.16,707.491C2617.05,715.515 2600.77,719.527 2582.32,719.527C2544.87,719.527 2515.41,705.001 2493.92,675.948C2472.43,646.896 2461.68,606.821 2461.68,555.725C2461.68,505.367 2472.47,465.846 2494.05,437.163C2515.64,408.479 2545.06,394.137 2582.32,394.137C2600.95,394.137 2617.37,398.149 2631.57,406.173C2645.78,414.197 2656.93,425.864 2665.05,441.175ZM2515.36,556.832C2515.36,596.307 2521.63,626.098 2534.18,646.204C2546.72,666.31 2565.26,676.363 2589.79,676.363C2614.32,676.363 2633,666.218 2645.82,645.927C2658.64,625.636 2665.05,595.938 2665.05,556.832C2665.05,517.542 2658.64,487.797 2645.82,467.599C2633,447.4 2614.32,437.301 2589.79,437.301C2565.26,437.301 2546.72,447.354 2534.18,467.46C2521.63,487.567 2515.36,517.357 2515.36,556.832Z" style="fill:rgb(0,211,114);fill-rule:nonzero;"/>
        <path d="M3064.54,531.1L3064.54,556.002L2844.02,556.002L2844.02,557.662C2842.54,599.904 2850.61,630.248 2868.23,648.694C2885.84,667.14 2910.7,676.363 2942.8,676.363C2959.03,676.363 2976,673.781 2993.71,668.616C3011.41,663.451 3030.32,655.611 3050.43,645.097L3050.43,695.732C3031.06,703.664 3012.38,709.613 2994.4,713.579C2976.41,717.544 2959.03,719.527 2942.24,719.527C2894.1,719.527 2856.47,705.093 2829.35,676.225C2802.24,647.357 2788.68,607.559 2788.68,556.832C2788.68,507.396 2801.96,467.922 2828.52,438.408C2855.08,408.894 2890.5,394.137 2934.77,394.137C2974.25,394.137 3005.37,407.51 3028.16,434.257C3050.94,461.004 3063.06,493.285 3064.54,531.1ZM3013.63,516.158C3011.41,494.761 3003.62,476.268 2990.25,460.681C2976.88,445.094 2957.64,437.301 2932.56,437.301C2908.02,437.301 2887.83,445.417 2871.96,461.65C2856.1,477.882 2847.43,496.144 2845.95,516.435L3013.63,516.158Z" style="fill:rgb(0,211,114);fill-rule:nonzero;"/>
        <path d="M3318.21,253.854C3293.68,295.911 3275.37,337.83 3263.29,379.61C3251.21,421.391 3245.16,463.494 3245.16,505.921C3245.16,548.162 3251.21,590.22 3263.29,632.093C3275.37,673.965 3293.68,716.115 3318.21,758.541L3273.94,758.541C3246.09,714.639 3225.34,671.89 3211.68,630.294C3198.03,588.698 3191.21,547.24 3191.21,505.921C3191.21,464.786 3198.03,423.374 3211.68,381.686C3225.34,339.997 3246.09,297.387 3273.94,253.854L3318.21,253.854Z" style="fill:rgb(103,103,103);fill-rule:nonzero;"/>
        <path d="M3504.92,253.854L3549.2,253.854C3577.05,297.387 3597.8,339.997 3611.45,381.686C3625.1,423.374 3631.93,464.786 3631.93,505.921C3631.93,547.425 3625.1,589.021 3611.45,630.709C3597.8,672.397 3577.05,715.008 3549.2,758.541L3504.92,758.541C3529.46,715.746 3547.76,673.412 3559.85,631.539C3571.93,589.666 3577.97,547.793 3577.97,505.921C3577.97,463.863 3571.93,421.898 3559.85,380.025C3547.76,338.153 3529.46,296.095 3504.92,253.854Z" style="fill:rgb(103,103,103);fill-rule:nonzero;"/>
        <path d="M3857.93,611.617L3944.26,611.617L3944.26,684.941L3889.75,790.637L3830.54,790.637L3857.93,684.941L3857.93,611.617ZM3854.33,401.884L3940.66,401.884L3940.66,501.77L3854.33,501.77L3854.33,401.884Z" style="fill:rgb(103,103,103);fill-rule:nonzero;"/>
    </g>
</svg>
